<svg width="40" height="40" viewBox="0 0 40 40" fill="none" xmlns="http://www.w3.org/2000/svg">
<rect width="40" height="40" rx="6" fill="#EDFFE6"/>
<path d="M10.3177 29.9343L12.0417 30.3562L13.7656 29.9343V29.0889L12.0417 28.667L10.3177 29.0889V29.9343Z" fill="#F9CF58"/>
<path d="M15.6194 29.9343L17.3434 30.3562L19.0674 29.9343V29.0889L17.3434 28.667L15.6194 29.0889V29.9343Z" fill="#FFAC3E"/>
<path d="M20.9212 29.9343L22.6452 30.3562L24.3691 29.9343V29.0889L22.6452 28.667L20.9212 29.0889V29.9343Z" fill="#82D361"/>
<path d="M26.2229 29.9343L27.9469 30.3562L29.6708 29.9343V29.0889L27.9469 28.667L26.2229 29.0889V29.9343Z" fill="#6CC4FF"/>
<path d="M13.7656 29.0891H10.3177V25.6782C10.3177 25.4188 10.528 25.2085 10.7874 25.2085H13.296C13.5555 25.2085 13.7657 25.4188 13.7657 25.6782V29.0891H13.7656Z" fill="#FFE27A"/>
<path d="M19.0674 29.0892H15.6194V23.1147C15.6194 22.8553 15.8297 22.645 16.0891 22.645H18.5977C18.8571 22.645 19.0674 22.8553 19.0674 23.1147V29.0892Z" fill="#FFBA57"/>
<path d="M24.3691 29.0892H20.9212V20.5512C20.9212 20.2918 21.1315 20.0815 21.3909 20.0815H23.8995C24.1589 20.0815 24.3692 20.2918 24.3692 20.5512V29.0892H24.3691Z" fill="#98DB7C"/>
<path d="M29.6708 29.0893H26.2229V17.9878C26.2229 17.7283 26.4332 17.5181 26.6926 17.5181H29.2012C29.4606 17.5181 29.6709 17.7283 29.6709 17.9878L29.6708 29.0893Z" fill="#8BCAFF"/>
<path d="M27.7735 13.3329L27.3597 9.21139C27.3563 9.17766 27.3457 9.14506 27.3285 9.11584C27.3113 9.08662 27.288 9.06146 27.2602 9.04209C27.2324 9.02273 27.2007 9.00962 27.1673 9.00366C27.134 8.9977 27.0997 8.99903 27.0669 9.00757L23.0555 10.0523C22.8613 10.1029 22.8159 10.3579 22.9806 10.4724L24.0285 11.2009C24.0285 11.2009 21.341 16.442 11.6309 19.4386V19.7006C14.2951 19.7151 21.2596 18.9532 25.6277 13.0835L26.3574 12.8202L27.4058 13.5491C27.5704 13.6636 27.7935 13.5324 27.7735 13.3329Z" fill="#FF4755"/>
<path d="M25.9368 12.5229C25.8322 12.4491 25.6885 12.473 25.6121 12.5756C21.244 18.4453 15.6402 19.1844 11.7898 19.4519C11.7374 19.4558 11.6847 19.4509 11.6338 19.4375L11.6304 19.4386C11.1338 19.5953 11.2729 20.3333 11.7924 20.2972C15.6833 20.0265 22.106 18.6369 26.3574 12.82L25.9368 12.5229Z" fill="#FC2B3A"/>
<path d="M31.642 30.6391H8.34657C8.25413 30.6376 8.166 30.5998 8.10117 30.5339C8.03633 30.468 8 30.3793 8 30.2868C8 30.1944 8.03633 30.1057 8.10117 30.0398C8.166 29.9739 8.25413 29.9361 8.34657 29.9346H31.6421C31.7345 29.9361 31.8226 29.9739 31.8875 30.0398C31.9523 30.1057 31.9886 30.1944 31.9886 30.2869C31.9886 30.3793 31.9523 30.468 31.8874 30.5339C31.8226 30.5998 31.7345 30.6376 31.642 30.6391Z" fill="#407093"/>
</svg>
