<svg width="40" height="40" viewBox="0 0 40 40" fill="none" xmlns="http://www.w3.org/2000/svg">
<rect width="40" height="40" rx="6" fill="#EEE6FF"/>
<path d="M15.8621 15.1991C15.8177 15.2432 15.7844 15.2971 15.7651 15.3566C15.7457 15.416 15.7408 15.4792 15.7507 15.541L15.9698 16.8116C15.9823 16.8825 15.9745 16.9554 15.9475 17.0221C15.9205 17.0888 15.8753 17.1466 15.8171 17.1889C15.7588 17.2311 15.6899 17.2561 15.6181 17.2611C15.5463 17.2661 15.4745 17.2507 15.411 17.2169L14.2776 16.6169C14.222 16.5885 14.1605 16.5737 14.0981 16.5737C14.0356 16.5737 13.9741 16.5885 13.9185 16.6169L12.7819 17.2169C12.5025 17.3672 12.1719 17.1277 12.2258 16.8116L12.4418 15.541C12.4531 15.4795 12.4492 15.4162 12.4304 15.3567C12.4116 15.2971 12.3785 15.243 12.3341 15.1991L11.413 14.2989C11.1875 14.0756 11.3116 13.6862 11.6258 13.6414L12.896 13.453C12.9581 13.4452 13.0171 13.4218 13.0676 13.385C13.1182 13.3481 13.1585 13.2991 13.1849 13.2424L13.7532 12.0863C13.7846 12.0217 13.8336 11.9671 13.8945 11.929C13.9555 11.8908 14.0259 11.8706 14.0978 11.8706C14.1697 11.8706 14.2402 11.8908 14.3011 11.929C14.362 11.9671 14.411 12.0217 14.4424 12.0863L15.0107 13.2424C15.0651 13.357 15.1728 13.4371 15.2969 13.453L16.5671 13.6414C16.8841 13.6862 17.0082 14.0756 16.7799 14.2989L15.8621 15.1991Z" fill="#F9B938"/>
<path opacity="0.3" d="M12.0592 14.3429C12.0097 14.3426 11.962 14.3236 11.9259 14.2897C11.8897 14.2559 11.8676 14.2096 11.864 14.1602C11.8604 14.1108 11.8755 14.0618 11.9064 14.0231C11.9373 13.9843 11.9817 13.9587 12.0307 13.9512L12.9499 13.8153C13.0713 13.7987 13.1866 13.7518 13.2852 13.679C13.3838 13.6062 13.4625 13.5098 13.5142 13.3987L13.9222 12.5682C13.9335 12.5451 13.9492 12.5243 13.9686 12.5073C13.9879 12.4902 14.0105 12.4772 14.0349 12.4689C14.0593 12.4606 14.0851 12.4572 14.1109 12.4589C14.1366 12.4607 14.1617 12.4675 14.1848 12.479C14.2314 12.5025 14.2669 12.5433 14.2835 12.5928C14.3001 12.6422 14.2965 12.6962 14.2736 12.743L13.8669 13.5708C13.7881 13.741 13.6674 13.8885 13.5162 13.9994C13.3649 14.1104 13.188 14.1812 13.002 14.2052L12.0882 14.3411C12.0786 14.3424 12.0689 14.343 12.0592 14.3429Z" fill="white"/>
<path d="M14.6679 12.8142L14.2106 11.8882C14.3057 11.9172 14.3917 11.9842 14.4424 12.0861L14.8966 13.0121C14.8467 12.9971 14.8006 12.9717 14.7612 12.9376C14.7218 12.9035 14.69 12.8614 14.6679 12.8142ZM15.8621 15.1988C15.8177 15.2429 15.7845 15.2969 15.7651 15.3563C15.7457 15.4158 15.7408 15.479 15.7507 15.5407L15.9698 16.8114C15.9823 16.8822 15.9745 16.9552 15.9475 17.0219C15.9205 17.0886 15.8753 17.1463 15.8171 17.1886C15.7588 17.2308 15.6899 17.2559 15.6181 17.2608C15.5463 17.2658 15.4745 17.2505 15.411 17.2166L14.2776 16.6166C14.222 16.5883 14.1605 16.5735 14.0981 16.5735C14.0356 16.5735 13.9741 16.5883 13.9185 16.6166L12.7819 17.2166C12.5089 17.3634 12.1846 17.1369 12.2227 16.8304C12.2973 16.84 12.373 16.8254 12.4387 16.7887L13.5753 16.1887C13.6309 16.1603 13.6924 16.1455 13.7548 16.1455C13.8172 16.1455 13.8788 16.1603 13.9344 16.1887L15.0682 16.7887C15.1318 16.8226 15.2035 16.8379 15.2753 16.8329C15.3471 16.8279 15.416 16.8029 15.4743 16.7607C15.5325 16.7184 15.5777 16.6607 15.6047 16.594C15.6318 16.5273 15.6395 16.4543 15.627 16.3834L15.4079 15.1128C15.398 15.0512 15.4029 14.9881 15.4222 14.9287C15.4415 14.8693 15.4746 14.8154 15.5188 14.7714L16.4367 13.8707C16.5 13.8082 16.5403 13.7262 16.5513 13.6379L16.5671 13.6411C16.8841 13.6859 17.0082 14.0754 16.7799 14.2986L15.8621 15.1988Z" fill="#ECB021"/>
<path d="M27.8671 15.1991C27.8228 15.2432 27.7896 15.2972 27.7703 15.3567C27.751 15.4161 27.7462 15.4793 27.7561 15.541L27.9753 16.8116C27.9878 16.8826 27.9801 16.9556 27.9531 17.0224C27.926 17.0891 27.8808 17.147 27.8224 17.1892C27.7641 17.2315 27.6951 17.2565 27.6232 17.2614C27.5514 17.2663 27.4796 17.2509 27.416 17.2169L26.2826 16.6169C26.227 16.5885 26.1655 16.5737 26.1031 16.5737C26.0406 16.5737 25.9791 16.5885 25.9235 16.6169L24.7869 17.2169C24.5075 17.3673 24.1774 17.1277 24.2313 16.8116L24.4473 15.541C24.4585 15.4795 24.4545 15.4162 24.4356 15.3566C24.4168 15.297 24.3836 15.2429 24.3391 15.1991L23.4189 14.2989C23.1934 14.0756 23.317 13.6862 23.6317 13.6414L24.9015 13.453C24.9636 13.4453 25.0227 13.4219 25.0733 13.3851C25.124 13.3483 25.1644 13.2992 25.1908 13.2424L25.7591 12.0864C25.7906 12.0218 25.8396 11.9674 25.9004 11.9293C25.9613 11.8913 26.0317 11.8711 26.1035 11.8711C26.1753 11.8711 26.2457 11.8913 26.3066 11.9293C26.3675 11.9674 26.4164 12.0218 26.4479 12.0864L27.0166 13.2424C27.0705 13.357 27.1783 13.4372 27.3019 13.453L28.5726 13.6414C28.89 13.6862 29.0141 14.0756 28.7854 14.2989L27.8671 15.1991Z" fill="#F9B938"/>
<path opacity="0.3" d="M24.0647 14.3429C24.0151 14.3426 23.9675 14.3236 23.9313 14.2897C23.8951 14.2559 23.873 14.2096 23.8694 14.1602C23.8658 14.1108 23.881 14.0618 23.9119 14.0231C23.9428 13.9843 23.9871 13.9587 24.0361 13.9512L24.9545 13.8153C25.0759 13.7987 25.1913 13.7519 25.29 13.6791C25.3886 13.6063 25.4674 13.5099 25.5191 13.3987L25.9271 12.5682C25.9384 12.5451 25.9542 12.5243 25.9736 12.5073C25.9929 12.4902 26.0154 12.4772 26.0399 12.4689C26.0643 12.4606 26.0901 12.4572 26.1158 12.4589C26.1416 12.4607 26.1667 12.4675 26.1898 12.479C26.2365 12.5024 26.272 12.5432 26.2887 12.5927C26.3054 12.6421 26.3019 12.6962 26.279 12.743L25.8719 13.5708C25.7931 13.741 25.6725 13.8884 25.5214 13.9993C25.3702 14.1103 25.1934 14.1811 25.0074 14.2052L24.0932 14.3411C24.0837 14.3424 24.0742 14.343 24.0647 14.3429Z" fill="white"/>
<path d="M26.6729 12.8142L26.2156 11.8882C26.3111 11.9172 26.3967 11.9842 26.4474 12.0861L26.9016 13.0121C26.8517 12.9971 26.8056 12.9717 26.7662 12.9376C26.7267 12.9035 26.695 12.8614 26.6729 12.8142ZM27.867 15.1988C27.8228 15.2429 27.7896 15.2969 27.7703 15.3564C27.751 15.4158 27.7461 15.479 27.7561 15.5407L27.9753 16.8114C27.9878 16.8823 27.9801 16.9553 27.953 17.0221C27.926 17.0889 27.8808 17.1467 27.8224 17.1889C27.7641 17.2312 27.6951 17.2562 27.6232 17.2611C27.5513 17.266 27.4795 17.2506 27.416 17.2166L26.2826 16.6166C26.227 16.5883 26.1655 16.5735 26.103 16.5735C26.0406 16.5735 25.9791 16.5883 25.9235 16.6166L24.7869 17.2166C24.5138 17.3634 24.1901 17.1369 24.2281 16.8304C24.3027 16.84 24.3784 16.8254 24.4441 16.7887L25.5807 16.1887C25.6363 16.1603 25.6978 16.1455 25.7602 16.1455C25.8227 16.1455 25.8842 16.1603 25.9398 16.1887L27.0732 16.7887C27.1367 16.8226 27.2085 16.8379 27.2803 16.8329C27.3521 16.8279 27.421 16.8029 27.4793 16.7607C27.5375 16.7184 27.5827 16.6607 27.6097 16.594C27.6367 16.5273 27.6445 16.4543 27.632 16.3834L27.4129 15.1128C27.403 15.0511 27.408 14.988 27.4274 14.9286C27.4467 14.8693 27.48 14.8154 27.5242 14.7714L28.4417 13.8707C28.5049 13.8082 28.5453 13.7262 28.5562 13.6379L28.5721 13.6411C28.8895 13.6859 29.0136 14.0754 28.7849 14.2986L27.867 15.1988Z" fill="#ECB021"/>
<path d="M21.8431 12.5033C21.7988 12.5473 21.7656 12.6012 21.7462 12.6606C21.7268 12.72 21.7219 12.7831 21.7317 12.8448L21.9508 14.1154C21.9634 14.1863 21.9557 14.2593 21.9288 14.3261C21.9018 14.3929 21.8566 14.4507 21.7983 14.493C21.7401 14.5353 21.6711 14.5604 21.5992 14.5654C21.5274 14.5703 21.4556 14.555 21.3921 14.5211L20.2586 13.9207C20.203 13.8923 20.1415 13.8775 20.0791 13.8775C20.0167 13.8775 19.9551 13.8923 19.8995 13.9207L18.7629 14.5211C18.4835 14.671 18.153 14.4315 18.2068 14.1154L18.4228 12.8448C18.434 12.7834 18.4301 12.7202 18.4113 12.6607C18.3925 12.6012 18.3595 12.5471 18.3151 12.5033L17.394 11.6031C17.1685 11.3794 17.2926 10.99 17.6068 10.9451L18.877 10.7568C18.9391 10.749 18.9981 10.7256 19.0486 10.6887C19.0992 10.6519 19.1395 10.6029 19.1659 10.5462L19.7347 9.39056C19.7662 9.32601 19.8151 9.2716 19.876 9.23354C19.9369 9.19548 20.0073 9.17529 20.0791 9.17529C20.1509 9.17529 20.2212 9.19548 20.2821 9.23354C20.343 9.2716 20.392 9.32601 20.4235 9.39056L20.9922 10.5462C21.0461 10.6612 21.1539 10.7409 21.2775 10.7568L22.5481 10.9451C22.8651 10.99 22.9892 11.3798 22.761 11.6031L21.8431 12.5033Z" fill="#F9B938"/>
<path d="M20.649 10.1185L20.1916 9.19287C20.2867 9.2214 20.3727 9.28842 20.4235 9.39076L20.8776 10.3163C20.8278 10.3013 20.7816 10.2759 20.7422 10.2418C20.7028 10.2077 20.671 10.1657 20.649 10.1185ZM21.8431 12.5035C21.7988 12.5475 21.7656 12.6014 21.7462 12.6608C21.7268 12.7202 21.7219 12.7833 21.7317 12.8449L21.9509 14.1156C21.9634 14.1865 21.9557 14.2595 21.9288 14.3263C21.9018 14.3931 21.8566 14.4509 21.7983 14.4932C21.7401 14.5355 21.6711 14.5606 21.5992 14.5656C21.5274 14.5705 21.4556 14.5552 21.3921 14.5213L20.2586 13.9209C20.203 13.8925 20.1415 13.8777 20.0791 13.8777C20.0167 13.8777 19.9551 13.8925 19.8995 13.9209L18.7629 14.5213C18.4899 14.668 18.1656 14.4412 18.2037 14.1351C18.2783 14.1447 18.354 14.1301 18.4197 14.0934L19.5563 13.4929C19.6119 13.4646 19.6734 13.4498 19.7358 13.4498C19.7983 13.4498 19.8598 13.4646 19.9154 13.4929L21.0493 14.0934C21.1128 14.1273 21.1846 14.1426 21.2564 14.1376C21.3283 14.1327 21.3973 14.1076 21.4555 14.0653C21.5138 14.023 21.559 13.9651 21.586 13.8984C21.613 13.8316 21.6206 13.7586 21.6081 13.6877L21.3889 12.417C21.3791 12.3554 21.384 12.2922 21.4034 12.2329C21.4228 12.1735 21.456 12.1196 21.5003 12.0756L22.4177 11.1754C22.4811 11.1127 22.5214 11.0306 22.5323 10.9422L22.5481 10.9453C22.8651 10.9902 22.9892 11.38 22.761 11.6033L21.8431 12.5035Z" fill="#ECB021"/>
<path opacity="0.3" d="M18.0383 11.647C17.9888 11.6467 17.9412 11.6277 17.905 11.5938C17.8688 11.56 17.8467 11.5137 17.8431 11.4643C17.8395 11.4149 17.8547 11.3659 17.8856 11.3272C17.9165 11.2884 17.9608 11.2628 18.0098 11.2553L18.9282 11.119C19.0496 11.1023 19.165 11.0555 19.2637 10.9827C19.3623 10.9099 19.4411 10.8135 19.4928 10.7024L19.9008 9.87232C19.9121 9.84909 19.9278 9.82832 19.9472 9.81122C19.9665 9.79411 19.989 9.78101 20.0134 9.77267C20.0379 9.76433 20.0637 9.76092 20.0895 9.76264C20.1152 9.76435 20.1404 9.77116 20.1635 9.78266C20.2102 9.80609 20.2457 9.84704 20.2624 9.89659C20.279 9.94614 20.2754 10.0002 20.2522 10.0471L19.8456 10.8744C19.7668 11.0447 19.6462 11.1923 19.4949 11.3033C19.3437 11.4143 19.1668 11.4852 18.9807 11.5093L18.0669 11.6447C18.0574 11.6461 18.0479 11.6469 18.0383 11.647Z" fill="white"/>
<path d="M27.5514 24.6819C27.5516 24.836 27.5214 24.9885 27.4625 25.1309C27.4036 25.2733 27.3172 25.4027 27.2083 25.5116C27.0993 25.6205 26.97 25.7069 26.8276 25.7658C26.6852 25.8247 26.5326 25.8549 26.3786 25.8547H25.8479C26.1551 25.8608 26.4477 25.987 26.6629 26.2065C26.878 26.4259 26.9985 26.7209 26.9985 27.0282C26.9985 27.3355 26.878 27.6306 26.6629 27.85C26.4477 28.0694 26.1551 28.1957 25.8479 28.2017H24.8063C25.1119 28.2102 25.402 28.3376 25.6151 28.5567C25.8283 28.7758 25.9475 29.0694 25.9475 29.375C25.9475 29.6807 25.8283 29.9743 25.6151 30.1934C25.402 30.4125 25.1119 30.5398 24.8063 30.5483H16.9642C16.7153 30.5483 16.4765 30.4494 16.3005 30.2734C16.1244 30.0973 16.0255 29.8585 16.0255 29.6096V23.7246L18.8059 19.3503C19.0988 18.8894 19.2218 18.3407 19.1537 17.7989L18.9983 16.5631C18.9865 16.4687 18.9937 16.3729 19.0196 16.2814C19.0455 16.1899 19.0895 16.1045 19.1491 16.0304C19.2087 15.9562 19.2826 15.8948 19.3663 15.8498C19.4501 15.8048 19.5421 15.7771 19.6368 15.7684C21.1439 15.6303 22.3855 16.9322 22.1759 18.4306L21.8679 20.6277C21.8586 20.6942 21.8636 20.7619 21.8827 20.8263C21.9018 20.8907 21.9345 20.9502 21.9786 21.0009C22.0227 21.0516 22.0772 21.0922 22.1383 21.12C22.1994 21.1478 22.2658 21.1621 22.333 21.162H26.3075C26.9356 21.162 27.5052 21.6248 27.5482 22.2515C27.5599 22.4123 27.5384 22.5737 27.4848 22.7258C27.4313 22.8778 27.347 23.0172 27.2372 23.1352C27.1274 23.2531 26.9944 23.3472 26.8466 23.4115C26.6988 23.4757 26.5393 23.5088 26.3781 23.5086C27.0257 23.5086 27.5514 24.0339 27.5514 24.6819Z" fill="#F7C9A9"/>
<path d="M25.8995 28.9515C25.9681 29.1292 25.9924 29.3209 25.9703 29.51C25.9482 29.6992 25.8804 29.8801 25.7728 30.0372C25.6651 30.1943 25.5208 30.3229 25.3524 30.4117C25.1839 30.5006 24.9964 30.5471 24.8059 30.5473H16.9647C16.8414 30.5473 16.7193 30.5231 16.6054 30.4759C16.4915 30.4288 16.388 30.3596 16.3008 30.2725C16.2136 30.1853 16.1445 30.0818 16.0973 29.9679C16.0502 29.8539 16.0259 29.7318 16.026 29.6086V28.7686C16.026 29.2848 16.4485 29.7073 16.9647 29.7073H24.8068C25.1306 29.7073 25.4213 29.576 25.6373 29.3645C25.7501 29.2472 25.8434 29.1064 25.8995 28.9515Z" fill="#F0B68E"/>
<path d="M16.4761 23.4709V29.8862C16.4761 30.4024 16.0586 30.8249 15.5374 30.8249H12.0366C11.7878 30.8242 11.5495 30.7251 11.3736 30.5492C11.1977 30.3733 11.0986 30.1349 11.0978 29.8862V23.4709C11.0978 22.9502 11.5203 22.5322 12.0366 22.5322H15.5374C16.0581 22.5322 16.4761 22.9502 16.4761 23.4709Z" fill="#8666C6"/>
<path d="M16.4761 23.47V29.8857C16.4761 30.4019 16.0586 30.8239 15.5374 30.8239H12.0366C11.7879 30.8232 11.5496 30.7241 11.3737 30.5484C11.1979 30.3726 11.0987 30.1343 11.0978 29.8857V29.7543H14.4673C14.9881 29.7543 15.4061 29.3319 15.4061 28.8156V22.5312H15.5374C16.0581 22.5312 16.4761 22.9492 16.4761 23.47Z" fill="#7553AA"/>
<path d="M14.2283 28.3422C14.2283 28.8113 13.8479 29.1962 13.3788 29.1962C12.9096 29.1962 12.5247 28.8113 12.5247 28.3422C12.5247 27.8726 12.9096 27.4927 13.3788 27.4927C13.8479 27.4927 14.2283 27.8731 14.2283 28.3422Z" fill="#E4E3FF"/>
<path d="M14.1155 27.9287C13.9911 27.8533 13.848 27.8143 13.7025 27.816C13.2334 27.816 12.8485 28.1963 12.8485 28.6655C12.8485 28.8158 12.8906 28.9612 12.9608 29.083C12.8289 29.0091 12.7191 28.9016 12.6425 28.7713C12.5658 28.6411 12.5252 28.4928 12.5247 28.3417C12.5247 27.8726 12.9096 27.4922 13.3788 27.4922C13.698 27.4922 13.9747 27.6706 14.1155 27.9287Z" fill="#D0D0F7"/>
<path opacity="0.2" d="M12.311 23.4761V26.089C12.311 26.1483 12.2874 26.2052 12.2455 26.2471C12.2035 26.2891 12.1466 26.3127 12.0873 26.3127C12.028 26.3127 11.9711 26.2891 11.9291 26.2471C11.8872 26.2052 11.8636 26.1483 11.8636 26.089V23.4761C11.8636 23.4168 11.8872 23.3599 11.9291 23.318C11.9711 23.276 12.028 23.2524 12.0873 23.2524C12.1466 23.2524 12.2035 23.276 12.2455 23.318C12.2874 23.3599 12.311 23.4168 12.311 23.4761ZM12.311 27.0662V27.269C12.311 27.3284 12.2874 27.3853 12.2455 27.4272C12.2035 27.4692 12.1466 27.4927 12.0873 27.4927C12.028 27.4927 11.9711 27.4692 11.9291 27.4272C11.8872 27.3853 11.8636 27.3284 11.8636 27.269V27.0662C11.8636 27.0068 11.8872 26.95 11.9291 26.908C11.9711 26.866 12.028 26.8425 12.0873 26.8425C12.1466 26.8425 12.2035 26.866 12.2455 26.908C12.2874 26.95 12.311 27.0068 12.311 27.0662Z" fill="white"/>
</svg>
