<svg width="40" height="40" viewBox="0 0 40 40" fill="none" xmlns="http://www.w3.org/2000/svg">
<rect width="40" height="40" rx="6" fill="#E6F4FF"/>
<path d="M26.6744 19.1631V20.8001L26.7159 20.8059C27.7219 20.9479 28.6465 21.4491 29.3194 22.2173C29.9987 22.993 30.3731 23.9892 30.3727 25.0204C30.3727 27.3676 28.4631 29.2772 26.1159 29.2772C25.1489 29.2772 24.2374 28.961 23.4801 28.363L23.4669 28.3526H21.2692C22.3314 29.8927 24.1076 30.9044 26.1159 30.9044C29.3604 30.9044 32 28.2649 32 25.0204C32 21.9643 29.6579 19.4453 26.6744 19.1631Z" fill="#26A6FE"/>
<path d="M26.6745 19.1631V19.7249C27.7485 20.2467 28.6411 21.0855 29.2295 22.1192C29.2598 22.1516 29.2902 22.1839 29.3195 22.2173C29.9988 22.9931 30.3731 23.9893 30.3728 25.0204C30.3728 26.1385 29.9393 27.157 29.2319 27.9174C28.3774 29.4215 26.8795 30.5142 25.1151 30.8186C25.4457 30.8756 25.7806 30.9044 26.116 30.9045C29.3605 30.9044 32 28.2649 32 25.0204C32 21.9643 29.658 19.4453 26.6745 19.1631Z" fill="#0593FC"/>
<path d="M21.8592 25.0206C21.8592 22.6734 23.7688 20.7638 26.116 20.7638C26.322 20.7638 26.5245 20.7788 26.7227 20.8073V13.7329H8V27.6768C8 28.0768 8.32428 28.4011 8.72436 28.4011H23.5322C22.5159 27.6224 21.8592 26.3969 21.8592 25.0206Z" fill="#F9F3F1"/>
<path d="M24.7187 13.7329V20.9997C25.1679 20.8432 25.6403 20.7635 26.1159 20.7638C26.322 20.7638 26.5245 20.7788 26.7227 20.8073V13.7329H24.7187Z" fill="#F3EAE6"/>
<path d="M12.5647 18.1728H10.543C10.5045 18.1728 10.4677 18.1576 10.4405 18.1304C10.4133 18.1032 10.3981 18.0664 10.3981 18.0279V16.0062C10.3981 15.9678 10.4133 15.9309 10.4405 15.9038C10.4677 15.8766 10.5045 15.8613 10.543 15.8613H12.5647C12.6031 15.8613 12.64 15.8766 12.6671 15.9038C12.6943 15.9309 12.7096 15.9678 12.7096 16.0062V18.0279C12.7096 18.0664 12.6943 18.1032 12.6671 18.1304C12.64 18.1576 12.6031 18.1728 12.5647 18.1728ZM16.4364 18.1728H14.4146C14.3762 18.1728 14.3394 18.1576 14.3122 18.1304C14.285 18.1032 14.2698 18.0664 14.2698 18.0279V16.0062C14.2698 15.9678 14.285 15.9309 14.3122 15.9038C14.3394 15.8766 14.3762 15.8613 14.4146 15.8613H16.4364C16.4748 15.8613 16.5116 15.8766 16.5388 15.9038C16.566 15.9309 16.5813 15.9678 16.5813 16.0062V18.0279C16.5813 18.0664 16.566 18.1032 16.5388 18.1304C16.5116 18.1576 16.4748 18.1728 16.4364 18.1728Z" fill="#A6E7F0"/>
<path d="M16.4364 15.8613H15.4543C15.4927 15.8613 15.5296 15.8766 15.5567 15.9038C15.5839 15.9309 15.5992 15.9678 15.5992 16.0062V18.0279C15.5992 18.0664 15.5839 18.1032 15.5567 18.1304C15.5296 18.1576 15.4927 18.1728 15.4543 18.1728H16.4364C16.4748 18.1728 16.5116 18.1576 16.5388 18.1304C16.566 18.1032 16.5813 18.0664 16.5813 18.0279V16.0062C16.5813 15.9872 16.5775 15.9683 16.5702 15.9508C16.563 15.9332 16.5523 15.9172 16.5388 15.9038C16.5254 15.8903 16.5094 15.8796 16.4918 15.8723C16.4742 15.8651 16.4554 15.8613 16.4364 15.8613Z" fill="#6BD9E7"/>
<path d="M20.3081 18.1728H18.2864C18.2479 18.1728 18.2111 18.1576 18.1839 18.1304C18.1567 18.1032 18.1415 18.0664 18.1415 18.0279V16.0062C18.1415 15.9678 18.1567 15.9309 18.1839 15.9038C18.2111 15.8766 18.2479 15.8613 18.2864 15.8613H20.3081C20.3465 15.8613 20.3834 15.8766 20.4105 15.9038C20.4377 15.9309 20.453 15.9678 20.453 16.0062V18.0279C20.453 18.0664 20.4377 18.1032 20.4105 18.1304C20.3834 18.1576 20.3465 18.1728 20.3081 18.1728Z" fill="#A6E7F0"/>
<path d="M20.3081 15.8613H19.3175C19.3559 15.8613 19.3928 15.8766 19.42 15.9038C19.4471 15.9309 19.4624 15.9678 19.4624 16.0062V18.0279C19.4624 18.0664 19.4471 18.1032 19.42 18.1304C19.3928 18.1576 19.3559 18.1728 19.3175 18.1728H20.3081C20.3465 18.1728 20.3833 18.1576 20.4105 18.1304C20.4377 18.1032 20.453 18.0664 20.453 18.0279V16.0062C20.453 15.9678 20.4377 15.9309 20.4105 15.9038C20.3833 15.8766 20.3465 15.8613 20.3081 15.8613Z" fill="#6BD9E7"/>
<path d="M24.1797 18.1728H22.158C22.1196 18.1728 22.0827 18.1576 22.0556 18.1304C22.0284 18.1032 22.0131 18.0664 22.0131 18.0279V16.0062C22.0131 15.9678 22.0284 15.9309 22.0556 15.9038C22.0827 15.8766 22.1196 15.8613 22.158 15.8613H24.1797C24.2182 15.8613 24.255 15.8766 24.2822 15.9038C24.3094 15.9309 24.3246 15.9678 24.3246 16.0062V18.0279C24.3246 18.0664 24.3093 18.1032 24.2822 18.1304C24.255 18.1575 24.2182 18.1728 24.1797 18.1728Z" fill="#FE7D43"/>
<path d="M24.1798 15.8613H23.1807C23.2191 15.8613 23.2559 15.8766 23.2831 15.9038C23.3103 15.9309 23.3256 15.9678 23.3256 16.0062V18.0279C23.3256 18.0664 23.3103 18.1032 23.2831 18.1304C23.2559 18.1576 23.2191 18.1728 23.1807 18.1728H24.1798C24.2182 18.1728 24.255 18.1576 24.2822 18.1304C24.3094 18.1032 24.3246 18.0664 24.3246 18.0279V16.0062C24.3246 15.9678 24.3094 15.9309 24.2822 15.9038C24.255 15.8766 24.2182 15.8613 24.1798 15.8613Z" fill="#FD6930"/>
<path d="M12.5647 22.1601H10.543C10.5045 22.1601 10.4677 22.1449 10.4405 22.1177C10.4133 22.0905 10.3981 22.0537 10.3981 22.0152V19.9935C10.3981 19.9551 10.4133 19.9182 10.4405 19.8911C10.4677 19.8639 10.5045 19.8486 10.543 19.8486H12.5647C12.6031 19.8486 12.64 19.8639 12.6671 19.8911C12.6943 19.9182 12.7096 19.9551 12.7096 19.9935V22.0152C12.7096 22.0537 12.6943 22.0905 12.6671 22.1177C12.64 22.1449 12.6031 22.1601 12.5647 22.1601ZM16.4364 22.1601H14.4146C14.3762 22.1601 14.3394 22.1449 14.3122 22.1177C14.285 22.0905 14.2698 22.0537 14.2698 22.0152V19.9935C14.2698 19.9551 14.285 19.9182 14.3122 19.8911C14.3394 19.8639 14.3762 19.8486 14.4146 19.8486H16.4364C16.4748 19.8486 16.5116 19.8639 16.5388 19.8911C16.566 19.9182 16.5813 19.9551 16.5813 19.9935V22.0152C16.5813 22.0537 16.566 22.0905 16.5388 22.1177C16.5116 22.1449 16.4748 22.1601 16.4364 22.1601Z" fill="#A6E7F0"/>
<path d="M16.4363 19.8486H15.4543C15.4733 19.8486 15.4921 19.8523 15.5097 19.8596C15.5273 19.8669 15.5433 19.8775 15.5567 19.891C15.5702 19.9045 15.5808 19.9204 15.5881 19.938C15.5954 19.9556 15.5992 19.9744 15.5992 19.9935V22.0152C15.5992 22.0536 15.5839 22.0905 15.5567 22.1176C15.5295 22.1448 15.4927 22.1601 15.4543 22.1601H16.4363C16.4748 22.1601 16.5116 22.1448 16.5388 22.1176C16.566 22.0905 16.5812 22.0536 16.5812 22.0152V19.9935C16.5812 19.955 16.566 19.9182 16.5388 19.891C16.5116 19.8638 16.4748 19.8486 16.4363 19.8486ZM12.5647 15.8613H11.5826C11.621 15.8613 11.6579 15.8766 11.685 15.9038C11.7122 15.9309 11.7275 15.9678 11.7275 16.0062V18.0279C11.7275 18.0664 11.7122 18.1032 11.685 18.1304C11.6579 18.1576 11.621 18.1728 11.5826 18.1728H12.5647C12.6031 18.1728 12.6399 18.1576 12.6671 18.1304C12.6943 18.1032 12.7095 18.0664 12.7095 18.0279V16.0062C12.7096 15.9872 12.7058 15.9683 12.6985 15.9508C12.6913 15.9332 12.6806 15.9172 12.6671 15.9038C12.6537 15.8903 12.6377 15.8796 12.6201 15.8723C12.6025 15.8651 12.5837 15.8613 12.5647 15.8613ZM12.5647 19.8486H11.5826C11.6016 19.8486 11.6204 19.8523 11.638 19.8596C11.6556 19.8669 11.6716 19.8775 11.685 19.891C11.6985 19.9045 11.7092 19.9204 11.7164 19.938C11.7237 19.9556 11.7275 19.9744 11.7275 19.9935V22.0152C11.7275 22.0536 11.7122 22.0905 11.685 22.1176C11.6579 22.1448 11.621 22.1601 11.5826 22.1601H12.5647C12.6031 22.1601 12.6399 22.1448 12.6671 22.1176C12.6943 22.0905 12.7095 22.0536 12.7095 22.0152V19.9935C12.7095 19.955 12.6943 19.9182 12.6671 19.891C12.6399 19.8638 12.6031 19.8486 12.5647 19.8486Z" fill="#6BD9E7"/>
<path d="M20.3081 22.1601H18.2864C18.2479 22.1601 18.2111 22.1449 18.1839 22.1177C18.1567 22.0905 18.1415 22.0537 18.1415 22.0152V19.9935C18.1415 19.9551 18.1567 19.9182 18.1839 19.8911C18.2111 19.8639 18.2479 19.8486 18.2864 19.8486H20.3081C20.3465 19.8486 20.3834 19.8639 20.4105 19.8911C20.4377 19.9182 20.453 19.9551 20.453 19.9935V22.0152C20.453 22.0537 20.4377 22.0905 20.4105 22.1177C20.3834 22.1449 20.3465 22.1601 20.3081 22.1601Z" fill="#A6E7F0"/>
<path d="M20.3081 19.8486H19.3175C19.3365 19.8486 19.3554 19.8524 19.373 19.8597C19.3905 19.8669 19.4065 19.8776 19.42 19.8911C19.4334 19.9045 19.4441 19.9205 19.4514 19.9381C19.4586 19.9557 19.4624 19.9745 19.4624 19.9935V22.0152C19.4624 22.0537 19.4471 22.0905 19.42 22.1177C19.3928 22.1449 19.3559 22.1601 19.3175 22.1601H20.3081C20.3465 22.1601 20.3833 22.1449 20.4105 22.1177C20.4377 22.0905 20.453 22.0537 20.453 22.0152V19.9935C20.4529 19.9551 20.4377 19.9183 20.4105 19.8911C20.3833 19.8639 20.3465 19.8486 20.3081 19.8486Z" fill="#6BD9E7"/>
<path d="M22.1581 22.1601H22.9661C23.3481 21.7397 23.8099 21.3996 24.3246 21.1596V19.9935C24.3246 19.9745 24.3209 19.9557 24.3136 19.9381C24.3063 19.9205 24.2956 19.9045 24.2822 19.8911C24.2687 19.8776 24.2528 19.8669 24.2352 19.8597C24.2176 19.8524 24.1988 19.8486 24.1797 19.8486H22.158C22.139 19.8486 22.1201 19.8524 22.1026 19.8597C22.085 19.8669 22.069 19.8776 22.0556 19.8911C22.0421 19.9045 22.0314 19.9205 22.0242 19.9381C22.0169 19.9557 22.0131 19.9745 22.0131 19.9935V22.0152C22.0131 22.0537 22.0284 22.0905 22.0556 22.1177C22.0828 22.1448 22.1196 22.1601 22.1581 22.1601Z" fill="#FE7D43"/>
<path d="M24.1798 19.8486H23.1807C23.1997 19.8486 23.2185 19.8524 23.2361 19.8597C23.2537 19.8669 23.2697 19.8776 23.2831 19.8911C23.2966 19.9045 23.3072 19.9205 23.3145 19.9381C23.3218 19.9557 23.3256 19.9745 23.3256 19.9935V21.8102C23.6251 21.5495 23.9606 21.3292 24.3246 21.1596V19.9936C24.3246 19.9551 24.3094 19.9183 24.2822 19.8911C24.255 19.8639 24.2182 19.8486 24.1798 19.8486Z" fill="#FD6930"/>
<path d="M16.4364 26.1474H14.4147C14.3762 26.1474 14.3394 26.1322 14.3122 26.105C14.285 26.0778 14.2698 26.041 14.2698 26.0025V23.9808C14.2698 23.9424 14.285 23.9055 14.3122 23.8784C14.3394 23.8512 14.3762 23.8359 14.4147 23.8359H16.4364C16.4748 23.8359 16.5117 23.8512 16.5388 23.8784C16.566 23.9055 16.5813 23.9424 16.5813 23.9808V26.0025C16.5813 26.0216 16.5775 26.0404 16.5703 26.058C16.563 26.0756 16.5523 26.0916 16.5389 26.105C16.5254 26.1185 16.5094 26.1291 16.4918 26.1364C16.4743 26.1437 16.4554 26.1474 16.4364 26.1474Z" fill="#A6E7F0"/>
<path d="M16.4364 23.8359H15.4543C15.4927 23.8359 15.5296 23.8512 15.5567 23.8784C15.5839 23.9055 15.5992 23.9424 15.5992 23.9808V26.0025C15.5992 26.041 15.5839 26.0778 15.5567 26.105C15.5296 26.1322 15.4927 26.1474 15.4543 26.1474H16.4364C16.4748 26.1474 16.5116 26.1322 16.5388 26.105C16.566 26.0778 16.5813 26.041 16.5813 26.0025V23.9808C16.5813 23.9424 16.566 23.9055 16.5388 23.8784C16.5116 23.8512 16.4748 23.8359 16.4364 23.8359Z" fill="#6BD9E7"/>
<path d="M20.3081 26.1474H18.2864C18.2479 26.1474 18.2111 26.1322 18.1839 26.105C18.1567 26.0778 18.1415 26.041 18.1415 26.0025V23.9808C18.1415 23.9424 18.1567 23.9055 18.1839 23.8784C18.2111 23.8512 18.2479 23.8359 18.2864 23.8359H20.3081C20.3465 23.8359 20.3834 23.8512 20.4105 23.8784C20.4377 23.9055 20.453 23.9424 20.453 23.9808V26.0025C20.453 26.0216 20.4492 26.0404 20.442 26.058C20.4347 26.0756 20.424 26.0916 20.4106 26.105C20.3971 26.1185 20.3811 26.1291 20.3635 26.1364C20.346 26.1437 20.3271 26.1474 20.3081 26.1474Z" fill="#A6E7F0"/>
<path d="M20.3081 23.8359H19.3175C19.3559 23.8359 19.3928 23.8512 19.42 23.8784C19.4471 23.9055 19.4624 23.9424 19.4624 23.9808V26.0025C19.4624 26.041 19.4471 26.0778 19.42 26.105C19.3928 26.1322 19.3559 26.1474 19.3175 26.1474H20.3081C20.3465 26.1474 20.3833 26.1322 20.4105 26.105C20.4377 26.0778 20.453 26.041 20.453 26.0025V23.9808C20.4529 23.9424 20.4377 23.9056 20.4105 23.8784C20.3833 23.8512 20.3465 23.8359 20.3081 23.8359Z" fill="#6BD9E7"/>
<path d="M26.1159 29.3255C28.4936 29.3255 30.421 27.3981 30.421 25.0204C30.421 22.6428 28.4936 20.7153 26.1159 20.7153C23.7383 20.7153 21.8109 22.6428 21.8109 25.0204C21.8109 27.3981 23.7383 29.3255 26.1159 29.3255Z" fill="white"/>
<path d="M26.1159 20.7158C25.8609 20.7157 25.6064 20.7381 25.3553 20.7828C27.3702 21.142 28.8998 22.9028 28.8998 25.0209C28.8998 27.139 27.3702 28.8998 25.3553 29.2589C25.6064 29.3036 25.8609 29.326 26.1159 29.3259C28.4936 29.3259 30.421 27.3985 30.421 25.0208C30.421 22.6432 28.4936 20.7158 26.1159 20.7158Z" fill="#F9F3F1"/>
<path d="M28.1096 25.3724H26.116C26.0228 25.3724 25.9334 25.3354 25.8674 25.2695C25.8015 25.2035 25.7645 25.1141 25.7645 25.0209V22.3916C25.7645 22.1974 25.9218 22.04 26.116 22.04C26.3102 22.04 26.4676 22.1974 26.4676 22.3916V24.6693H28.1096C28.2029 24.6693 28.2923 24.7063 28.3582 24.7723C28.4241 24.8382 28.4612 24.9276 28.4612 25.0209C28.4612 25.1141 28.4241 25.2035 28.3582 25.2695C28.2923 25.3354 28.2029 25.3724 28.1096 25.3724Z" fill="#685E68"/>
<path d="M26.7227 13.7812H8V11.0383C8 10.6383 8.32428 10.314 8.72436 10.314H25.9984C26.3984 10.314 26.7228 10.6382 26.7228 11.0383V13.7812H26.7227Z" fill="#FE7D43"/>
<path d="M25.9984 10.314H24.6761V10.7956C24.7041 10.8735 24.7185 10.9556 24.7187 11.0383V13.7812H26.7227V11.0383C26.7227 10.6382 26.3984 10.314 25.9984 10.314Z" fill="#FD6930"/>
<path d="M10.3981 11.8213C10.3049 11.8213 10.2155 11.7843 10.1495 11.7184C10.0836 11.6524 10.0466 11.563 10.0466 11.4698V9.44727C10.0466 9.25311 10.2039 9.0957 10.3981 9.0957C10.5923 9.0957 10.7497 9.25311 10.7497 9.44727V11.4698C10.7497 11.563 10.7127 11.6524 10.6467 11.7184C10.5808 11.7843 10.4914 11.8213 10.3981 11.8213ZM24.3246 11.8213C24.2314 11.8213 24.1419 11.7843 24.076 11.7184C24.0101 11.6524 23.973 11.563 23.973 11.4698V9.44727C23.973 9.25311 24.1304 9.0957 24.3246 9.0957C24.5188 9.0957 24.6762 9.25311 24.6762 9.44727V11.4698C24.6762 11.563 24.6391 11.6524 24.5732 11.7184C24.5073 11.7843 24.4178 11.8213 24.3246 11.8213Z" fill="#6BD9E7"/>
<path d="M11.4396 26.4988C11.3877 26.4988 11.3364 26.4873 11.2894 26.4651C11.2425 26.4429 11.201 26.4106 11.168 26.3705L10.1265 25.1033C10.0673 25.0312 10.0392 24.9386 10.0482 24.8458C10.0573 24.753 10.1029 24.6677 10.1749 24.6085C10.2106 24.5791 10.2517 24.5571 10.2958 24.5437C10.34 24.5303 10.3864 24.5257 10.4323 24.5302C10.4783 24.5346 10.5229 24.5481 10.5636 24.5699C10.6044 24.5916 10.6404 24.6212 10.6697 24.6568L11.3924 25.5361L12.4661 23.7189C12.4894 23.6788 12.5204 23.6437 12.5573 23.6156C12.5942 23.5875 12.6363 23.5671 12.6812 23.5553C12.7261 23.5436 12.7728 23.5409 12.8188 23.5473C12.8647 23.5538 12.9089 23.5692 12.9489 23.5928C12.9888 23.6164 13.0237 23.6477 13.0515 23.6848C13.0792 23.7219 13.0994 23.7642 13.1108 23.8092C13.1222 23.8541 13.1246 23.9009 13.1178 23.9468C13.1111 23.9927 13.0953 24.0368 13.0714 24.0765L11.7423 26.3261C11.7112 26.3787 11.6669 26.4223 11.6139 26.4526C11.5608 26.4829 11.5007 26.4988 11.4396 26.4988Z" fill="#0ED290"/>
<path d="M26.116 29.6775C23.5483 29.6775 21.4594 27.5886 21.4594 25.0209C21.4594 22.4532 23.5483 20.3643 26.116 20.3643C28.6836 20.3643 30.7726 22.4532 30.7726 25.0209C30.7726 27.5885 28.6836 29.6775 26.116 29.6775ZM26.116 21.0674C23.936 21.0674 22.1625 22.8409 22.1625 25.0209C22.1625 27.2008 23.936 28.9744 26.116 28.9744C28.296 28.9744 30.0695 27.2009 30.0695 25.0209C30.0694 22.8409 28.2959 21.0674 26.116 21.0674Z" fill="#8AC9FE"/>
<path d="M22.1904 12.4683H12.5324C12.3382 12.4683 12.1808 12.3109 12.1808 12.1167C12.1808 11.9225 12.3382 11.7651 12.5324 11.7651H22.1903C22.3845 11.7651 22.5419 11.9225 22.5419 12.1167C22.5419 12.3109 22.3845 12.4683 22.1904 12.4683Z" fill="white"/>
</svg>
