<svg width="40" height="40" viewBox="0 0 40 40" fill="none" xmlns="http://www.w3.org/2000/svg">
<rect width="40" height="40" rx="6" fill="#FEE5E6"/>
<path fill-rule="evenodd" clip-rule="evenodd" d="M13.0794 26.7167L16.3361 24.8299C16.9473 24.4758 17.5689 24.2247 18.2407 24.4427C18.9897 24.6856 20.2127 25.2071 21.4601 25.4321C21.9231 25.5822 22.2117 26.0458 22.0858 26.5158C21.9598 26.986 21.5626 27.2284 21.002 27.1417L21.4381 27.2115C21.9377 27.2914 22.3966 27.223 22.8339 26.9683L25.9651 25.1446C28.399 23.7271 28.7565 25.9079 27.9472 26.4061L22.265 29.9049C21.7424 30.2267 21.1705 30.3017 20.5777 30.1428L16.4561 29.0385L14.9298 29.9197C14.6363 30.0891 14.2588 29.988 14.0894 29.6945L12.8551 27.5567C12.6857 27.2635 12.7865 26.8864 13.0794 26.7167Z" fill="#F6DCCD"/>
<path fill-rule="evenodd" clip-rule="evenodd" d="M22.0114 26.7108C21.8374 27.051 21.4788 27.2154 21.002 27.1416C20.3269 26.9631 19.6525 26.7801 18.9779 26.5993C18.8924 26.575 18.8198 26.518 18.7759 26.4407C18.732 26.3633 18.7203 26.2718 18.7433 26.1858C18.7663 26.0999 18.8222 26.0265 18.8989 25.9814C18.9756 25.9364 19.067 25.9233 19.1532 25.945L22.0114 26.7108ZM13.0795 26.7167L16.3361 24.8299C16.9474 24.4758 17.5689 24.2247 18.2407 24.4427C18.6414 24.5726 19.1779 24.7823 19.7811 24.9837L13.4724 28.626L12.8551 27.5567C12.6858 27.2635 12.7865 26.8864 13.0795 26.7167Z" fill="#F1CBBC"/>
<path fill-rule="evenodd" clip-rule="evenodd" d="M13.4042 25.6892L15.987 30.2528C16.1119 30.4735 16.0336 30.7562 15.8129 30.8811L14.9343 31.3783C14.7137 31.5032 14.431 31.4248 14.3061 31.2041L11.7233 26.6405C11.5984 26.4198 11.6768 26.1371 11.8974 26.0122L12.7759 25.515C12.9966 25.3901 13.2793 25.4685 13.4042 25.6892Z" fill="#D1D1D6"/>
<path fill-rule="evenodd" clip-rule="evenodd" d="M14.7626 28.8247L15.2197 29.6324L15.6718 30.4312C15.7964 30.6514 15.7186 30.9334 15.499 31.0587L15.8128 30.8811C16.0335 30.7562 16.1118 30.4735 15.987 30.2528L15.5334 29.4513L14.6226 27.842L13.7108 26.2309L13.4042 25.6891C13.296 25.498 13.0693 25.4137 12.8672 25.4757L13.3982 26.4137L14.3089 28.023L14.7625 28.8245L14.7626 28.8247Z" fill="#B1B1B5"/>
<path fill-rule="evenodd" clip-rule="evenodd" d="M12.8138 26.371C12.773 26.3769 12.7338 26.3909 12.6984 26.412C12.6631 26.4331 12.6322 26.4609 12.6076 26.494C12.583 26.527 12.5651 26.5646 12.555 26.6045C12.5449 26.6444 12.5428 26.686 12.5488 26.7267C12.5547 26.7675 12.5687 26.8067 12.5898 26.842C12.6109 26.8774 12.6387 26.9083 12.6718 26.9329C12.7048 26.9575 12.7423 26.9753 12.7823 26.9854C12.8222 26.9955 12.8637 26.9977 12.9045 26.9917C12.9453 26.9857 12.9844 26.9718 13.0198 26.9507C13.0552 26.9296 13.0861 26.9017 13.1107 26.8687C13.1353 26.8357 13.1531 26.7981 13.1632 26.7582C13.1733 26.7182 13.1754 26.6767 13.1695 26.636C13.1635 26.5952 13.1496 26.556 13.1285 26.5206C13.1074 26.4853 13.0795 26.4544 13.0465 26.4298C13.0135 26.4052 12.9759 26.3873 12.936 26.3772C12.896 26.3671 12.8545 26.365 12.8138 26.371Z" fill="#685E68"/>
<path fill-rule="evenodd" clip-rule="evenodd" d="M18.9419 17.0366C18.9647 17.132 18.949 17.2325 18.8983 17.3164C18.8476 17.4003 18.7659 17.461 18.6709 17.4852C18.5759 17.5094 18.4752 17.4953 18.3905 17.4459C18.3058 17.3965 18.2439 17.3158 18.2182 17.2212L16.8424 11.8643H15.0974C14.9979 11.8643 14.9025 11.8247 14.8322 11.7544C14.7619 11.6841 14.7224 11.5887 14.7224 11.4893C14.7224 11.3898 14.7619 11.2944 14.8322 11.2241C14.9025 11.1538 14.9979 11.1143 15.0974 11.1143H17.1316V11.1158C17.2146 11.1158 17.2952 11.1435 17.3607 11.1944C17.4262 11.2453 17.4729 11.3166 17.4935 11.397L18.9419 17.0366ZM27.0097 20.6065C27.1092 20.6065 27.2046 20.646 27.2749 20.7163C27.3452 20.7867 27.3847 20.882 27.3847 20.9815C27.3847 21.0809 27.3452 21.1763 27.2749 21.2467C27.2046 21.317 27.1092 21.3565 27.0097 21.3565H18.927C18.5639 21.3565 18.234 21.2082 17.9951 20.9693C17.7562 20.7304 17.6079 20.4005 17.6079 20.0374C17.6079 19.6743 17.7562 19.3444 17.9951 19.1055C18.234 18.8666 18.5639 18.7183 18.927 18.7183H22.3163C22.4157 18.7183 22.5111 18.7578 22.5815 18.8282C22.6518 18.8985 22.6913 18.9939 22.6913 19.0933C22.6913 19.1928 22.6518 19.2882 22.5815 19.3585C22.5111 19.4288 22.4157 19.4683 22.3163 19.4683H18.927C18.7709 19.4683 18.6287 19.5324 18.5254 19.6358C18.4221 19.7391 18.358 19.8813 18.358 20.0374C18.358 20.1935 18.4221 20.3357 18.5255 20.4391C18.6288 20.5424 18.771 20.6065 18.9271 20.6065H27.0097V20.6065Z" fill="#9FACBA"/>
<path fill-rule="evenodd" clip-rule="evenodd" d="M17.6362 13.0786H27.936C27.9958 13.0786 28.0546 13.0928 28.1077 13.1202C28.1608 13.1475 28.2066 13.1871 28.2413 13.2357C28.276 13.2843 28.2986 13.3405 28.3072 13.3996C28.3158 13.4587 28.3102 13.519 28.2908 13.5754L27.1928 18.1311C27.0971 18.5282 26.8772 18.8623 26.5793 19.097C26.2805 19.3323 25.9046 19.4683 25.4982 19.4683H19.0846C18.9954 19.4683 18.9091 19.4365 18.8412 19.3785C18.7733 19.3206 18.7283 19.2404 18.7143 19.1523L17.2744 13.5459C17.2603 13.4908 17.259 13.4331 17.2706 13.3774C17.2822 13.3217 17.3064 13.2694 17.3413 13.2245C17.3762 13.1795 17.4209 13.1432 17.472 13.1182C17.5231 13.0931 17.5793 13.0801 17.6362 13.0802V13.0786Z" fill="#FFE177"/>
<path fill-rule="evenodd" clip-rule="evenodd" d="M27.2633 13.0786H27.936C27.9957 13.0786 28.0546 13.0928 28.1077 13.1202C28.1608 13.1475 28.2066 13.1871 28.2413 13.2357C28.276 13.2843 28.2986 13.3405 28.3072 13.3996C28.3158 13.4587 28.3102 13.519 28.2908 13.5754L27.1928 18.1311C27.0971 18.5282 26.8772 18.8623 26.5793 19.097C26.2804 19.3323 25.9046 19.4683 25.4981 19.4683H19.0846C18.9954 19.4683 18.9091 19.4365 18.8412 19.3785C18.7733 19.3206 18.7283 19.2404 18.7143 19.1523L18.5842 18.6459H24.5491C24.9556 18.6459 25.3314 18.51 25.6302 18.2746C25.9281 18.04 26.1481 17.7059 26.2438 17.3087L27.2633 13.0786Z" fill="#FFD064"/>
<path fill-rule="evenodd" clip-rule="evenodd" d="M25.8729 21.4219C26.4717 21.4219 26.9572 21.9073 26.9572 22.5061C26.9572 23.105 26.4717 23.5904 25.8729 23.5904C25.2741 23.5904 24.7886 23.1049 24.7886 22.5061C24.7887 21.9073 25.2741 21.4219 25.8729 21.4219ZM19.5108 21.4219C20.1097 21.4219 20.5951 21.9073 20.5951 22.5061C20.5951 23.105 20.1097 23.5904 19.5108 23.5904C18.912 23.5904 18.4266 23.1049 18.4266 22.5061C18.4266 21.9073 18.912 21.4219 19.5108 21.4219Z" fill="#837683"/>
<path fill-rule="evenodd" clip-rule="evenodd" d="M25.8729 22.0781C25.6363 22.0781 25.4449 22.2696 25.4449 22.5061C25.4449 22.7427 25.6363 22.9342 25.8729 22.9342C26.1095 22.9342 26.3009 22.7427 26.3009 22.5061C26.301 22.4499 26.2899 22.3942 26.2684 22.3423C26.2469 22.2903 26.2154 22.2431 26.1757 22.2034C26.1359 22.1636 26.0887 22.1321 26.0367 22.1106C25.9848 22.0891 25.9291 22.0781 25.8729 22.0781ZM19.5108 22.0781C19.2743 22.0781 19.0828 22.2696 19.0828 22.5061C19.0828 22.7427 19.2743 22.9342 19.5108 22.9342C19.7474 22.9342 19.9389 22.7427 19.9389 22.5061C19.9389 22.2696 19.7474 22.0781 19.5108 22.0781Z" fill="#685E68"/>
<path fill-rule="evenodd" clip-rule="evenodd" d="M25.4939 10.0083C24.4981 10.4824 23.6303 11.1688 22.9425 12.0034C22.0843 13.0448 21.5072 14.3167 21.3124 15.6939C21.2976 15.7912 21.2452 15.8788 21.1663 15.9377C21.0875 15.9965 20.9886 16.022 20.8912 16.0085C20.7937 15.995 20.7055 15.9437 20.6456 15.8656C20.5857 15.7875 20.559 15.689 20.5712 15.5914C20.7857 14.0749 21.4209 12.6749 22.3654 11.5287C23.1035 10.6331 24.0308 9.89227 25.0942 9.37206L24.8075 9.3002C24.7598 9.28827 24.7149 9.26706 24.6754 9.23779C24.6359 9.20852 24.6025 9.17175 24.5772 9.12958C24.5519 9.08742 24.5352 9.04068 24.5279 8.99204C24.5207 8.94341 24.5231 8.89382 24.535 8.84612C24.547 8.79841 24.5682 8.75353 24.5974 8.71402C24.6267 8.67451 24.6635 8.64116 24.7057 8.61586C24.7478 8.59056 24.7946 8.57381 24.8432 8.56658C24.8918 8.55934 24.9414 8.56175 24.9891 8.57368L26.3902 8.92496C26.4467 8.93909 26.4992 8.96621 26.5434 9.00418C26.5876 9.04215 26.6223 9.08991 26.6448 9.14367C26.6673 9.19742 26.677 9.25569 26.673 9.31383C26.669 9.37197 26.6515 9.42837 26.6219 9.47856L25.9535 10.7386C25.9067 10.8253 25.8276 10.8901 25.7333 10.9189C25.639 10.9476 25.5371 10.938 25.4499 10.8921C25.3626 10.8461 25.297 10.7676 25.2674 10.6736C25.2377 10.5796 25.2463 10.4776 25.2914 10.3899L25.4939 10.0083Z" fill="#8AC9FE"/>
<path fill-rule="evenodd" clip-rule="evenodd" d="M20.478 9.37207C21.5413 9.89233 22.4687 10.6331 23.2068 11.5287C24.1512 12.6749 24.7865 14.0749 25.0009 15.5914C25.0131 15.689 24.9864 15.7875 24.9265 15.8656C24.8666 15.9437 24.7784 15.995 24.6809 16.0085C24.5835 16.022 24.4846 15.9965 24.4058 15.9377C24.3269 15.8788 24.2745 15.7912 24.2597 15.694C24.065 14.3166 23.4878 13.0448 22.6296 12.0034C21.9418 11.1688 21.074 10.4824 20.0782 10.0083L20.2806 10.39C20.3035 10.4334 20.3177 10.481 20.3222 10.5299C20.3267 10.5788 20.3215 10.6282 20.307 10.6751C20.2924 10.722 20.2687 10.7656 20.2373 10.8034C20.2059 10.8412 20.1674 10.8724 20.1239 10.8953C20.0804 10.9182 20.0329 10.9323 19.9839 10.9368C19.935 10.9414 19.8857 10.9362 19.8387 10.9216C19.7918 10.9071 19.7482 10.8834 19.7104 10.852C19.6726 10.8206 19.6414 10.782 19.6185 10.7386L18.9502 9.47857C18.9206 9.42838 18.9031 9.37197 18.8991 9.31383C18.8951 9.25568 18.9047 9.19741 18.9272 9.14365C18.9497 9.08989 18.9845 9.04213 19.0287 9.00416C19.0729 8.9662 19.1254 8.93908 19.1819 8.92497L20.583 8.57369C20.6307 8.56176 20.6803 8.55934 20.7289 8.56657C20.7776 8.57381 20.8243 8.59055 20.8665 8.61585C20.9086 8.64115 20.9454 8.67451 20.9747 8.71402C21.0039 8.75353 21.0251 8.79842 21.0371 8.84613C21.049 8.89383 21.0514 8.94342 21.0442 8.99206C21.0369 9.0407 21.0202 9.08744 20.9949 9.1296C20.9696 9.17177 20.9362 9.20854 20.8967 9.23781C20.8572 9.26708 20.8123 9.28829 20.7646 9.30021L20.478 9.37207Z" fill="#FE646F"/>
</svg>
