<svg width="10" height="19" viewBox="0 0 10 19" fill="none" xmlns="http://www.w3.org/2000/svg">
<path fill-rule="evenodd" clip-rule="evenodd" d="M6.44989 0.430136C5.45545 0.587775 4.75695 0.929361 4.18391 1.5382C3.70145 2.05082 3.40041 2.65225 3.23005 3.44372C3.16571 3.74268 3.15749 3.92335 3.14419 5.33156L3.12948 6.88881H1.76787H0.40625V8.47174V10.0547L1.76175 10.0638L3.11726 10.0729L3.12603 14.1357L3.1348 18.1984H4.75781H6.38082V14.127V10.0555H7.72769C8.46847 10.0555 9.07511 10.0516 9.0758 10.0468C9.16622 9.41305 9.47375 6.93304 9.46415 6.91491C9.45659 6.90053 8.7587 6.88881 7.91332 6.88881H6.3763L6.3879 5.59255C6.3993 4.32476 6.40134 4.29177 6.48118 4.09032C6.64294 3.68223 6.98332 3.44111 7.49151 3.37464C7.63092 3.35641 8.16086 3.34099 8.66915 3.3404L9.59335 3.33932L9.58433 1.92127L9.57532 0.503214L9.12636 0.462116C8.39025 0.394711 6.79369 0.375641 6.44989 0.430136Z" fill="#333344"/>
</svg>
