<svg width="16" height="16" viewBox="0 0 16 16" fill="none" xmlns="http://www.w3.org/2000/svg">
<path fill-rule="evenodd" clip-rule="evenodd" d="M2.26488 0.609467C1.59319 0.753007 1.01411 1.25298 0.781399 1.89031C0.682183 2.16208 0.6482 2.71068 0.712509 3.00201C0.858046 3.66101 1.42062 4.26794 2.07753 4.47461C2.40181 4.57667 2.93945 4.58395 3.22528 4.49021C3.59134 4.37018 3.86387 4.21035 4.09418 3.98072C4.37942 3.69631 4.53651 3.42197 4.63484 3.03647C4.91225 1.949 4.20725 0.841364 3.08813 0.606281C2.78117 0.541797 2.5779 0.542567 2.26488 0.609467ZM10.89 5.2918C10.3566 5.38005 9.97842 5.51773 9.58008 5.76871C9.40314 5.88021 8.97654 6.28615 8.84729 6.46605L8.76836 6.5759L8.76721 6.16212C8.76588 5.69481 8.72573 5.57387 8.53335 5.45761C8.42243 5.39052 8.34002 5.38609 7.20051 5.38598C6.04707 5.38584 5.97984 5.38957 5.86541 5.45966C5.61028 5.61598 5.62627 5.29283 5.62642 10.2981C5.62653 14.7405 5.62775 14.8168 5.69996 14.9341C5.74033 14.9998 5.82751 15.0862 5.89374 15.1262C6.00718 15.1948 6.08183 15.199 7.19057 15.1991C8.47507 15.1993 8.54085 15.1899 8.68074 14.9856C8.7432 14.8944 8.74885 14.7167 8.76714 12.2699C8.78631 9.71009 8.78856 9.64532 8.86842 9.36329C9.06076 8.68404 9.36894 8.26166 9.82775 8.04836C10.0632 7.93895 10.1015 7.93239 10.5021 7.93309C10.8585 7.93371 10.9592 7.94719 11.1273 8.01665C11.6876 8.24825 11.9914 8.75141 12.0877 9.60679C12.1121 9.82401 12.1274 10.9072 12.1274 12.4184C12.1274 14.8099 12.1294 14.8795 12.2006 14.9786C12.353 15.1908 12.4113 15.1993 13.7213 15.1992C15.0364 15.1992 15.0799 15.1926 15.2461 14.9676C15.3219 14.865 15.3225 14.8399 15.3194 12.1481C15.316 9.31722 15.2955 8.82227 15.1527 8.11383C14.9748 7.23219 14.6878 6.64313 14.1964 6.15158C13.7558 5.71096 13.3048 5.46687 12.6815 5.33172C12.3044 5.24999 11.2808 5.22717 10.89 5.2918ZM1.38065 5.45274C1.31143 5.48954 1.2244 5.57581 1.18728 5.64443C1.12297 5.76332 1.11979 5.98175 1.11979 10.2958V14.8223L1.20364 14.9467C1.36883 15.1918 1.41197 15.1992 2.68409 15.1992C3.94465 15.1993 3.9967 15.1911 4.15871 14.9659L4.24108 14.8514V10.291C4.24108 5.95699 4.23776 5.72546 4.17444 5.62964C4.13777 5.5742 4.05465 5.49671 3.98975 5.45746C3.87923 5.39067 3.79612 5.38609 2.68908 5.38598C1.61414 5.38584 1.49505 5.39191 1.38065 5.45274Z" fill="#333344"/>
</svg>
