<svg width="18" height="14" viewBox="0 0 18 14" fill="none" xmlns="http://www.w3.org/2000/svg">
<path d="M17.2799 1.86207C16.6695 2.13308 16.0152 2.31505 15.3273 2.39764C16.0294 1.97693 16.5688 1.311 16.8218 0.518607C16.1662 0.907062 15.437 1.18969 14.664 1.34198C14.0445 0.681216 13.1618 0.269531 12.1848 0.269531C10.3084 0.269531 8.78681 1.7898 8.78681 3.66625C8.78681 3.93211 8.81779 4.19151 8.87586 4.44058C6.05214 4.29862 3.54977 2.94613 1.87335 0.890285C1.58039 1.3936 1.41391 1.97693 1.41391 2.59897C1.41391 3.77724 2.01273 4.81742 2.92514 5.42785C2.36763 5.40978 1.84366 5.25621 1.38552 5.00197C1.38552 5.01617 1.38552 5.03036 1.38552 5.04456C1.38552 6.6913 2.55734 8.06315 4.10987 8.37675C3.82595 8.45419 3.52525 8.49549 3.21552 8.49549C2.99612 8.49549 2.78318 8.47484 2.5754 8.43354C3.00903 9.78216 4.26344 10.7668 5.74886 10.794C4.58737 11.7051 3.1226 12.2471 1.53006 12.2471C1.25517 12.2471 0.985449 12.2316 0.720886 12.1994C2.22308 13.1647 4.0092 13.7261 5.92825 13.7261C12.1771 13.7261 15.5945 8.54969 15.5945 4.06116C15.5945 3.91404 15.5906 3.76563 15.5854 3.62108C16.2488 3.14229 16.8243 2.54348 17.2799 1.86207Z" fill="#333344"/>
</svg>
