<svg width="32" height="32" viewBox="0 0 32 32" fill="none" xmlns="http://www.w3.org/2000/svg">
<path d="M16.0002 16.9998C11.7735 16.9998 8.3335 13.5598 8.3335 9.33317C8.3335 5.1065 11.7735 1.6665 16.0002 1.6665C20.2268 1.6665 23.6668 5.1065 23.6668 9.33317C23.6668 13.5598 20.2268 16.9998 16.0002 16.9998ZM16.0002 3.6665C12.8802 3.6665 10.3335 6.21317 10.3335 9.33317C10.3335 12.4532 12.8802 14.9998 16.0002 14.9998C19.1202 14.9998 21.6668 12.4532 21.6668 9.33317C21.6668 6.21317 19.1202 3.6665 16.0002 3.6665Z" fill="#5C6483"/>
<path d="M27.4535 30.3333C26.9069 30.3333 26.4535 29.88 26.4535 29.3333C26.4535 24.7333 21.7602 21 16.0002 21C10.2402 21 5.54687 24.7333 5.54687 29.3333C5.54687 29.88 5.09354 30.3333 4.54687 30.3333C4.00021 30.3333 3.54688 29.88 3.54688 29.3333C3.54688 23.64 9.13354 19 16.0002 19C22.8669 19 28.4535 23.64 28.4535 29.3333C28.4535 29.88 28.0002 30.3333 27.4535 30.3333Z" fill="#5C6483"/>
</svg>
