<svg width="20" height="20" viewBox="0 0 20 20" fill="none" xmlns="http://www.w3.org/2000/svg">
<path d="M1.6665 18.333H18.3332" stroke="#980479" stroke-width="1.5" stroke-linecap="round" stroke-linejoin="round"/>
<path d="M2.5918 18.333V10.833C2.5918 9.44967 3.83346 8.33301 5.3668 8.33301H14.6251C16.1585 8.33301 17.4001 9.44967 17.4001 10.833V18.333" stroke="#980479" stroke-width="1.5" stroke-linecap="round" stroke-linejoin="round"/>
<path d="M4.6333 8.33366V5.97533C4.6333 4.97533 5.5333 4.16699 6.64997 4.16699H13.3583C14.4666 4.16699 15.3666 4.97533 15.3666 5.97533V8.33366" stroke="#980479" stroke-width="1.5" stroke-linecap="round" stroke-linejoin="round"/>
<path d="M2.94141 11.6504L3.24974 11.6587C3.86641 11.6671 4.35807 12.1671 4.35807 12.7837V13.0587C4.35807 13.6754 4.85807 14.1837 5.48307 14.1837C6.09974 14.1837 6.60807 13.6837 6.60807 13.0587V12.8004C6.60807 12.1837 7.10807 11.6754 7.73307 11.6754C8.34974 11.6754 8.85807 12.1754 8.85807 12.8004V13.0587C8.85807 13.6754 9.35807 14.1837 9.98307 14.1837C10.5997 14.1837 11.1081 13.6837 11.1081 13.0587V12.8004C11.1081 12.1837 11.6081 11.6754 12.2331 11.6754C12.8497 11.6754 13.3581 12.1754 13.3581 12.8004V13.0587C13.3581 13.6754 13.8581 14.1837 14.4831 14.1837C15.0997 14.1837 15.6081 13.6837 15.6081 13.0587V12.8004C15.6081 12.1837 16.1081 11.6754 16.7331 11.6754H17.1081" stroke="#980479" stroke-width="1.5" stroke-linecap="round" stroke-linejoin="round"/>
<path d="M6.66675 4.16667V2.5" stroke="#980479" stroke-width="1.5" stroke-linecap="round" stroke-linejoin="round"/>
<path d="M13.3333 4.16667V2.5" stroke="#980479" stroke-width="1.5" stroke-linecap="round" stroke-linejoin="round"/>
<path d="M10 4.16699V1.66699" stroke="#980479" stroke-width="1.5" stroke-linecap="round" stroke-linejoin="round"/>
</svg>
