<svg width="19" height="19" viewBox="0 0 19 19" fill="none" xmlns="http://www.w3.org/2000/svg">
<path d="M6.33325 4.552C6.00867 4.552 5.7395 4.28284 5.7395 3.95825V1.58325C5.7395 1.25867 6.00867 0.989502 6.33325 0.989502C6.65784 0.989502 6.927 1.25867 6.927 1.58325V3.95825C6.927 4.28284 6.65784 4.552 6.33325 4.552Z" fill="#5C6483"/>
<path d="M12.6667 4.552C12.3422 4.552 12.073 4.28284 12.073 3.95825V1.58325C12.073 1.25867 12.3422 0.989502 12.6667 0.989502C12.9913 0.989502 13.2605 1.25867 13.2605 1.58325V3.95825C13.2605 4.28284 12.9913 4.552 12.6667 4.552Z" fill="#5C6483"/>
<path d="M6.72917 11.4791C6.62625 11.4791 6.52333 11.4553 6.42833 11.4158C6.32542 11.3762 6.24625 11.3207 6.16708 11.2495C6.02458 11.0991 5.9375 10.9012 5.9375 10.6874C5.9375 10.5845 5.96125 10.4816 6.00083 10.3866C6.04042 10.2916 6.09583 10.2045 6.16708 10.1253C6.24625 10.0541 6.32542 9.99866 6.42833 9.95908C6.71333 9.84033 7.06958 9.90368 7.29125 10.1253C7.43375 10.2758 7.52083 10.4816 7.52083 10.6874C7.52083 10.7349 7.51292 10.7903 7.505 10.8458C7.49708 10.8933 7.48125 10.9408 7.4575 10.9883C7.44167 11.0358 7.41792 11.0833 7.38625 11.1308C7.3625 11.1703 7.32292 11.2099 7.29125 11.2495C7.14083 11.392 6.935 11.4791 6.72917 11.4791Z" fill="#5C6483"/>
<path d="M9.49992 11.4792C9.397 11.4792 9.29408 11.4554 9.19908 11.4159C9.09617 11.3763 9.017 11.3208 8.93784 11.2496C8.79534 11.0992 8.70825 10.9013 8.70825 10.6875C8.70825 10.5846 8.732 10.4817 8.77159 10.3867C8.81117 10.2917 8.86659 10.2046 8.93784 10.1254C9.017 10.0542 9.09617 9.99876 9.19908 9.95918C9.48408 9.83251 9.84033 9.90378 10.062 10.1254C10.2045 10.2759 10.2916 10.4817 10.2916 10.6875C10.2916 10.735 10.2837 10.7904 10.2758 10.8459C10.2678 10.8934 10.252 10.9409 10.2283 10.9884C10.2124 11.0359 10.1887 11.0834 10.157 11.1309C10.1333 11.1704 10.0937 11.21 10.062 11.2496C9.91158 11.3921 9.70575 11.4792 9.49992 11.4792Z" fill="#5C6483"/>
<path d="M12.2709 11.4792C12.168 11.4792 12.0651 11.4554 11.9701 11.4159C11.8672 11.3763 11.788 11.3208 11.7088 11.2496C11.6772 11.21 11.6455 11.1704 11.6138 11.1309C11.5822 11.0834 11.5584 11.0359 11.5426 10.9884C11.5188 10.9409 11.503 10.8934 11.4951 10.8459C11.4872 10.7904 11.4792 10.735 11.4792 10.6875C11.4792 10.4817 11.5663 10.2759 11.7088 10.1254C11.788 10.0542 11.8672 9.99876 11.9701 9.95918C12.263 9.83251 12.6113 9.90378 12.833 10.1254C12.9755 10.2759 13.0626 10.4817 13.0626 10.6875C13.0626 10.735 13.0547 10.7904 13.0467 10.8459C13.0388 10.8934 13.023 10.9409 12.9992 10.9884C12.9834 11.0359 12.9597 11.0834 12.928 11.1309C12.9042 11.1704 12.8647 11.21 12.833 11.2496C12.6826 11.3921 12.4767 11.4792 12.2709 11.4792Z" fill="#5C6483"/>
<path d="M6.72917 14.2499C6.62625 14.2499 6.52333 14.2262 6.42833 14.1866C6.33333 14.147 6.24625 14.0916 6.16708 14.0204C6.02458 13.8699 5.9375 13.6641 5.9375 13.4583C5.9375 13.3554 5.96125 13.2524 6.00083 13.1574C6.04042 13.0545 6.09583 12.9675 6.16708 12.8962C6.46 12.6033 6.99833 12.6033 7.29125 12.8962C7.43375 13.0466 7.52083 13.2524 7.52083 13.4583C7.52083 13.6641 7.43375 13.8699 7.29125 14.0204C7.14083 14.1629 6.935 14.2499 6.72917 14.2499Z" fill="#5C6483"/>
<path d="M9.49992 14.2499C9.29409 14.2499 9.08825 14.1629 8.93784 14.0204C8.79534 13.8699 8.70825 13.6641 8.70825 13.4583C8.70825 13.3554 8.732 13.2524 8.77159 13.1574C8.81117 13.0545 8.86659 12.9675 8.93784 12.8962C9.23075 12.6033 9.76908 12.6033 10.062 12.8962C10.1333 12.9675 10.1887 13.0545 10.2283 13.1574C10.2678 13.2524 10.2916 13.3554 10.2916 13.4583C10.2916 13.6641 10.2045 13.8699 10.062 14.0204C9.91158 14.1629 9.70575 14.2499 9.49992 14.2499Z" fill="#5C6483"/>
<path d="M12.2709 14.2501C12.0651 14.2501 11.8592 14.163 11.7088 14.0205C11.6376 13.9492 11.5822 13.8621 11.5426 13.7592C11.503 13.6642 11.4792 13.5613 11.4792 13.4584C11.4792 13.3555 11.503 13.2525 11.5426 13.1575C11.5822 13.0546 11.6376 12.9676 11.7088 12.8963C11.8909 12.7142 12.168 12.6271 12.4213 12.6825C12.4767 12.6905 12.5242 12.7063 12.5717 12.73C12.6192 12.7459 12.6667 12.7696 12.7142 12.8013C12.7538 12.8251 12.7934 12.8646 12.833 12.8963C12.9755 13.0467 13.0626 13.2526 13.0626 13.4584C13.0626 13.6642 12.9755 13.87 12.833 14.0205C12.6826 14.163 12.4767 14.2501 12.2709 14.2501Z" fill="#5C6483"/>
<path d="M16.2291 7.79004H2.77075C2.44617 7.79004 2.177 7.52087 2.177 7.19629C2.177 6.87171 2.44617 6.60254 2.77075 6.60254H16.2291C16.5537 6.60254 16.8228 6.87171 16.8228 7.19629C16.8228 7.52087 16.5537 7.79004 16.2291 7.79004Z" fill="#5C6483"/>
<path d="M12.6667 18.0103H6.33333C3.44375 18.0103 1.78125 16.3478 1.78125 13.4583V6.72908C1.78125 3.8395 3.44375 2.177 6.33333 2.177H12.6667C15.5563 2.177 17.2188 3.8395 17.2188 6.72908V13.4583C17.2188 16.3478 15.5563 18.0103 12.6667 18.0103ZM6.33333 3.3645C4.06917 3.3645 2.96875 4.46492 2.96875 6.72908V13.4583C2.96875 15.7224 4.06917 16.8228 6.33333 16.8228H12.6667C14.9308 16.8228 16.0312 15.7224 16.0312 13.4583V6.72908C16.0312 4.46492 14.9308 3.3645 12.6667 3.3645H6.33333Z" fill="#5C6483"/>
</svg>
