<svg width="17" height="17" viewBox="0 0 17 17" fill="none" xmlns="http://www.w3.org/2000/svg">
<g id="vuesax/outline/calendar">
<g id="calendar">
<path id="Vector" d="M5.71528 3.95963C5.43503 3.95963 5.20264 3.72723 5.20264 3.44699V1.39643C5.20264 1.11619 5.43503 0.883789 5.71528 0.883789C5.99552 0.883789 6.22792 1.11619 6.22792 1.39643V3.44699C6.22792 3.72723 5.99552 3.95963 5.71528 3.95963Z" fill="#99047A"/>
<path id="Vector_2" d="M11.1835 3.95963C10.9033 3.95963 10.6709 3.72723 10.6709 3.44699V1.39643C10.6709 1.11619 10.9033 0.883789 11.1835 0.883789C11.4638 0.883789 11.6962 1.11619 11.6962 1.39643V3.44699C11.6962 3.72723 11.4638 3.95963 11.1835 3.95963Z" fill="#99047A"/>
<path id="Vector_3" d="M6.05706 9.9404C5.9682 9.9404 5.87934 9.9199 5.79732 9.88573C5.70846 9.85155 5.64011 9.80369 5.57176 9.74217C5.44872 9.6123 5.37354 9.44143 5.37354 9.25688C5.37354 9.16802 5.39404 9.07916 5.42822 8.99714C5.46239 8.91511 5.51024 8.83994 5.57176 8.77158C5.64011 8.71007 5.70846 8.6622 5.79732 8.62803C6.04338 8.5255 6.35097 8.5802 6.54235 8.77158C6.66539 8.90145 6.74058 9.07916 6.74058 9.25688C6.74058 9.29789 6.73374 9.34574 6.72691 9.39359C6.72007 9.4346 6.7064 9.47561 6.68589 9.51662C6.67222 9.55763 6.65172 9.59864 6.62438 9.63965C6.60387 9.67382 6.5697 9.70799 6.54235 9.74217C6.41249 9.8652 6.23477 9.9404 6.05706 9.9404Z" fill="#99047A"/>
<path id="Vector_4" d="M8.44915 9.94002C8.36029 9.94002 8.27143 9.91952 8.18941 9.88534C8.10055 9.85117 8.0322 9.80331 7.96385 9.74179C7.84081 9.61192 7.76562 9.44105 7.76562 9.2565C7.76562 9.16764 7.78613 9.07878 7.82031 8.99676C7.85448 8.91473 7.90233 8.83956 7.96385 8.7712C8.0322 8.70969 8.10055 8.66182 8.18941 8.62765C8.43547 8.51829 8.74306 8.57982 8.93444 8.7712C9.05748 8.90107 9.13267 9.07878 9.13267 9.2565C9.13267 9.29751 9.12583 9.34536 9.119 9.39321C9.11216 9.43422 9.09849 9.47523 9.07798 9.51624C9.06431 9.55725 9.04381 9.59826 9.01647 9.63927C8.99596 9.67344 8.96179 9.70761 8.93444 9.74179C8.80458 9.86482 8.62686 9.94002 8.44915 9.94002Z" fill="#99047A"/>
<path id="Vector_5" d="M10.8417 9.94002C10.7529 9.94002 10.664 9.91952 10.582 9.88534C10.4931 9.85117 10.4248 9.80331 10.3564 9.74179C10.3291 9.70761 10.3017 9.67344 10.2744 9.63927C10.2471 9.59826 10.2266 9.55725 10.2129 9.51624C10.1924 9.47523 10.1787 9.43422 10.1719 9.39321C10.165 9.34536 10.1582 9.29751 10.1582 9.2565C10.1582 9.07878 10.2334 8.90107 10.3564 8.7712C10.4248 8.70969 10.4931 8.66182 10.582 8.62765C10.8349 8.51829 11.1356 8.57982 11.327 8.7712C11.4501 8.90107 11.5252 9.07878 11.5252 9.2565C11.5252 9.29751 11.5184 9.34536 11.5116 9.39321C11.5047 9.43422 11.4911 9.47523 11.4706 9.51624C11.4569 9.55725 11.4364 9.59826 11.409 9.63927C11.3885 9.67344 11.3544 9.70761 11.327 9.74179C11.1972 9.86482 11.0194 9.94002 10.8417 9.94002Z" fill="#99047A"/>
<path id="Vector_6" d="M6.05706 12.3326C5.9682 12.3326 5.87934 12.3121 5.79732 12.2779C5.71529 12.2438 5.64011 12.1959 5.57176 12.1344C5.44872 12.0045 5.37354 11.8268 5.37354 11.6491C5.37354 11.5602 5.39404 11.4714 5.42822 11.3894C5.46239 11.3005 5.51024 11.2253 5.57176 11.1638C5.82466 10.9109 6.28945 10.9109 6.54235 11.1638C6.66539 11.2937 6.74058 11.4714 6.74058 11.6491C6.74058 11.8268 6.66539 12.0045 6.54235 12.1344C6.41249 12.2574 6.23477 12.3326 6.05706 12.3326Z" fill="#99047A"/>
<path id="Vector_7" d="M8.44915 12.3326C8.27143 12.3326 8.09372 12.2574 7.96385 12.1344C7.84081 12.0045 7.76562 11.8268 7.76562 11.6491C7.76562 11.5602 7.78613 11.4714 7.82031 11.3894C7.85448 11.3005 7.90233 11.2253 7.96385 11.1638C8.21675 10.9109 8.68154 10.9109 8.93444 11.1638C8.99596 11.2253 9.04381 11.3005 9.07798 11.3894C9.11216 11.4714 9.13267 11.5602 9.13267 11.6491C9.13267 11.8268 9.05748 12.0045 8.93444 12.1344C8.80458 12.2574 8.62686 12.3326 8.44915 12.3326Z" fill="#99047A"/>
<path id="Vector_8" d="M10.8417 12.3325C10.664 12.3325 10.4863 12.2573 10.3564 12.1343C10.2949 12.0727 10.2471 11.9976 10.2129 11.9087C10.1787 11.8267 10.1582 11.7378 10.1582 11.649C10.1582 11.5601 10.1787 11.4713 10.2129 11.3892C10.2471 11.3004 10.2949 11.2252 10.3564 11.1637C10.5136 11.0065 10.7529 10.9313 10.9716 10.9791C11.0194 10.9859 11.0605 10.9996 11.1015 11.0201C11.1425 11.0338 11.1835 11.0543 11.2245 11.0817C11.2587 11.1022 11.2928 11.1363 11.327 11.1637C11.4501 11.2935 11.5252 11.4713 11.5252 11.649C11.5252 11.8267 11.4501 12.0044 11.327 12.1343C11.1972 12.2573 11.0194 12.3325 10.8417 12.3325Z" fill="#99047A"/>
<path id="Vector_9" d="M14.2594 6.75526H2.63959C2.35935 6.75526 2.12695 6.52286 2.12695 6.24262C2.12695 5.96238 2.35935 5.72998 2.63959 5.72998H14.2594C14.5397 5.72998 14.7721 5.96238 14.7721 6.24262C14.7721 6.52286 14.5397 6.75526 14.2594 6.75526Z" fill="#99047A"/>
<path id="Vector_10" d="M11.1836 15.5791H5.7154C3.22055 15.5791 1.78516 14.1437 1.78516 11.6489V5.83893C1.78516 3.34408 3.22055 1.90869 5.7154 1.90869H11.1836C13.6784 1.90869 15.1138 3.34408 15.1138 5.83893V11.6489C15.1138 14.1437 13.6784 15.5791 11.1836 15.5791ZM5.7154 2.93397C3.76053 2.93397 2.81044 3.88407 2.81044 5.83893V11.6489C2.81044 13.6037 3.76053 14.5538 5.7154 14.5538H11.1836C13.1384 14.5538 14.0885 13.6037 14.0885 11.6489V5.83893C14.0885 3.88407 13.1384 2.93397 11.1836 2.93397H5.7154Z" fill="#99047A"/>
</g>
</g>
</svg>
