<svg width="130" height="130" viewBox="0 0 130 130" fill="none" xmlns="http://www.w3.org/2000/svg">
<circle cx="65" cy="65" r="65" fill="#222222"/>
<path fill-rule="evenodd" clip-rule="evenodd" d="M71.9533 54.9046V54.2588H70.6616V54.9046C70.6616 56.7224 71.5984 59.2947 73.536 61.4086C74.4333 62.3877 75.5492 63.273 76.893 63.9451H76.8834H76.8091H76.7344H76.6593H76.5839H76.5082H76.4322H76.3558H76.2791H76.2021H76.1247H76.047H75.969H75.8906H75.8119H75.7329H75.6536H75.574H75.494H75.4137H75.3331H75.2522H75.1709H75.0894H75.0075H74.9253H74.8428H74.7599H74.6768H74.5933H74.5096H74.4255H74.3411H74.2564H74.1714H74.0861H74.0005H73.9146H73.8283H73.7418H73.655H73.5678H73.4804H73.3927H73.3046H73.2163H73.1277H73.0388H72.9495H72.86H72.7702H72.6801H72.5897H72.499H72.4081H72.3168H72.2252H72.1334H72.0413H71.9489H71.8562H71.7632H71.6699H71.5764H71.4826H71.3884H71.2941H71.1994H71.1045H71.0092H70.9137H70.818H70.7219H70.6256H70.529H70.4321H70.335H70.2376H70.1399H70.042H69.9438H69.8453H69.7466H69.6476H69.5483H69.4488H69.349H69.2489H69.1486H69.048H68.9472H68.8461H68.7448H68.6432H68.5413H68.4392H68.3369H68.2343H68.1314H68.0283H67.9249H67.8213H67.7174H67.6133H67.509H67.4044H67.2995H67.1945H67.0891H66.9836H66.8778H66.7717H66.6654H66.5589H66.4521H66.3451H66.2379H66.1304H66.0227H65.9148H65.8066H65.6983H65.5896H65.4808H65.3717H65.2624H65.1528H65.0431H64.9331H64.8229H64.7125H64.6018H64.4909H64.3798H64.2685H64.157H64.0452H63.9333H63.8211H63.7087H63.5961H63.4833H63.3702H63.257H63.1435H63.0299H62.916H62.8019H62.6876H62.5731H62.4584H62.3435H62.2284H62.1131H61.9976H61.8819H61.766H61.6499H61.5335H61.417H61.3003H61.1834H61.0664H60.9491H60.8316H60.7139H60.5961H60.478H60.3598H60.2413H60.1227H60.0039H59.8849H59.7658H59.6464H59.5269H59.4072H59.2873H59.1672H59.0469H58.9265H58.8059H58.6851H58.5641H58.443H58.3217H58.2002H58.0785H57.9567H57.8347H57.7125H57.5902H57.4676H57.345H57.2221H57.0991H56.9759H56.8526H56.7291H56.6055H56.4816H56.3577H56.2335H56.1092H55.9848H55.8602H55.7354H55.6105H55.4854H55.3602H55.2348H55.1093H54.9836H54.8578H54.7318H54.6057H54.4794H54.353H54.2264H54.0997H53.9729H53.8459H53.7188H53.5915H53.4641H53.3365H53.2089H53.081H52.9531H52.825H52.6968H52.5684H52.4399H52.3113H52.1825H52.0536H51.9246H51.7955H51.6662H51.5368H51.4073H51.2777H51.1479H51.018H50.888H50.7579H50.6276H50.4973H50.3668H50.2362H50.1054H49.9746H49.8437H49.7126H49.5814H49.4501H49.3187H49.1872H49.0556H48.9239H48.792H48.6601H48.5281H48.3959H47.7501V65.2367H48.0066V65.2369H48.6525H48.7837H48.9147H49.0457H49.1766H49.3074H49.4381H49.5686H49.6991H49.8294H49.9597H50.0898H50.2198H50.3497H50.4795H50.6091H50.7387H50.8681H50.9974H51.1266H51.2557H51.3847H51.5135H51.6422H51.7708H51.8992H52.0276H52.1558H52.2839H52.4118H52.5397H52.6674H52.7949H52.9224H53.0497H53.1768H53.3039H53.4308H53.5575H53.6842H53.8107H53.937H54.0632H54.1893H54.3152H54.441H54.5667H54.6922H54.8175H54.9428H55.0678H55.1928H55.3175H55.4422H55.5666H55.691H55.8151H55.9391H56.063H56.1867H56.3103H56.4337H56.5569H56.68H56.8029H56.9257H57.0483H57.1708H57.2931H57.4152H57.5371H57.6589H57.7806H57.902H58.0233H58.1444H58.2654H58.3862H58.5068H58.6272H58.7475H58.8676H58.9875H59.1073H59.2269H59.3462H59.4655H59.5845H59.7034H59.822H59.9405H60.0588H60.177H60.2949H60.4127H60.5303H60.6476H60.7648H60.8819H60.9987H61.1153H61.2317H61.348H61.4641H61.5799H61.6956H61.8111H61.9263H62.0414H62.1563H62.271H62.3854H62.4997H62.6138H62.7277H62.8414H62.9548H63.0681H63.1811H63.294H63.4066H63.5191H63.6313H63.7433H63.8551H63.9667H64.0781H64.1892H64.3002H64.4109H64.5214H64.6317H64.7418H64.8516H64.9613H65.0707H65.1799H65.2888H65.3976H65.5061H65.6144H65.7225H65.8303H65.9379H66.0453H66.1525H66.2594H66.3661H66.4726H66.5788H66.6848H66.7905H66.8961H67.0014H67.1064H67.2112H67.3158H67.4201H67.5242H67.628H67.7316H67.835H67.9381H68.041H68.1436H68.246H68.3481H68.45H68.5516H68.653H68.7541H68.8549H68.9556H69.0559H69.156H69.2559H69.3555H69.4548H69.5539H69.6527H69.7512H69.8495H69.9476H70.0453H70.1428H70.2401H70.337H70.4337H70.5302H70.6263H70.7222H70.8179H70.9132H71.0083H71.1031H71.1976H71.2919H71.3859H71.4796H71.573H71.6662H71.759H71.8516H71.9439H72.036H72.1277H72.2192H72.3104H72.4013H72.4919H72.5822H72.6722H72.762H72.8514H72.9406H73.0294H73.118H73.2063H73.2943H73.382H73.4694H73.5565H73.6433H73.7298H73.816H73.9019H73.9875H74.0728H74.1578H74.2425H74.3269H74.411H74.4948H74.5783H74.6614H74.7443H74.8268H74.909H74.991H75.0726H75.1539H75.2348H75.3155H75.3959H75.4759H75.5556H75.635H75.7141H75.7928H75.8713H75.9494H76.0272H76.1046H76.1818H76.2586H76.335H76.4112H76.487H76.5625H76.6377H76.7125H76.787H76.8431C75.4911 65.9085 74.3681 66.7931 73.4648 67.7716C71.5135 69.8852 70.5693 72.4581 70.5693 74.2774V74.9232H71.8609V74.2774C71.8609 72.8315 72.6474 70.5612 74.4138 68.6478C76.1471 66.7703 78.8073 65.2566 82.5507 65.2369H82.5522H82.587H82.6213H82.635H82.6551H82.6717H82.6886H82.7078H82.7216H82.7434H82.7542H82.7785H82.7864H82.813H82.8181H82.847H82.8494H82.8803H82.8804H82.9107H82.9132H82.9407H82.9455H82.9703H82.9773H82.9994H83.0085H83.0281H83.0392H83.0564H83.0693H83.0842H83.0989H83.1116H83.128H83.1385H83.1565H83.165H83.1844H83.191H83.2119H83.2167H83.2388H83.2418H83.2651H83.2665H83.2908H83.2909H83.3147H83.3162H83.338H83.341H83.361H83.3652H83.3835H83.3888H83.4055H83.412H83.4271H83.4346H83.4482H83.4567H83.4689H83.4783H83.4891H83.4993H83.5089H83.5198H83.5282H83.5398H83.547H83.5592H83.5654H83.5781H83.5834H83.5965H83.6009H83.6144H83.6179H83.6317H83.6345H83.6486H83.6506H83.6649H83.6662H83.6807H83.6814H83.696H83.6961H83.7103H83.7107H83.7241H83.7249H83.7374H83.7387H83.7503H83.7519H83.7627H83.7646H83.7746H83.7767H83.786H83.7884H83.797H83.7996H83.8075H83.8102H83.8175H83.8203H83.827H83.83H83.8361H83.8391H83.8447H83.8477H83.8528H83.8558H83.8605H83.8634H83.8676H83.8705H83.8743H83.877H83.8805H83.8831H83.8862H83.8887H83.8915H83.8938H83.8962H83.8984H83.9005H83.9024H83.9043H83.906H83.9076H83.9091H83.9104H83.9117H83.9128H83.9138H83.9146H83.9154H83.916H83.9165H83.9168H83.9171H83.9172L83.9172 64.5911L83.9172 63.9453H83.9171H83.9168H83.9165H83.9162V63.9451H83.9161H83.9158H83.9155H83.915H83.9144H83.9136H83.9128H83.9117H83.9107H83.9094H83.908H83.9065H83.9049H83.9032H83.9013H83.8994H83.8972H83.8951H83.8926H83.8903H83.8875H83.885H83.8819H83.8792H83.8757H83.873H83.8691H83.8663H83.862H83.859H83.8543H83.8513H83.8462H83.8432H83.8375H83.8345H83.8283H83.8254H83.8186H83.8158H83.8084H83.8057H83.7977H83.7951H83.7865H83.784H83.7747H83.7725H83.7624H83.7605H83.7497H83.7481H83.7364H83.7351H83.7225H83.7217H83.7082H83.7078H83.6935H83.6933H83.6787H83.678H83.6634H83.6621H83.6476H83.6456H83.6314H83.6287H83.6147H83.6112H83.5976H83.5932H83.58H83.5747H83.5619H83.5556H83.5434H83.536H83.5244H83.5159H83.5049H83.4952H83.485H83.4741H83.4646H83.4523H83.4438H83.4301H83.4225H83.4073H83.4008H83.384H83.3786H83.3602H83.3559H83.3358H83.3328H83.3108H83.3093H83.2854H83.2853H83.2608H83.2594H83.2359H83.2328H83.2106H83.2058H83.1848H83.1781H83.1585H83.15H83.1318H83.1212H83.1047H83.092H83.0771H83.0622H83.0491H83.0318H83.0207H83.0009H82.9918H82.9695H82.9624H82.9375H82.9326H82.9049H82.9024H82.8718H82.8718H82.8407H82.8382H82.8091H82.804H82.7772H82.7692H82.7448H82.7339H82.7119H82.6981H82.6787H82.6616H82.645H82.6247H82.6109H82.5763H82.5615C78.8481 63.9254 76.2087 62.413 74.4882 60.5359C72.7347 58.6229 71.9533 56.3519 71.9533 54.9046Z" fill="white"/>
<path d="M26.1343 52.9133C25.5495 55.1378 24.0509 56.3809 22.2177 56.5366L21.7023 54.6951C22.9527 54.5929 23.9391 53.9217 24.3417 52.3904C24.7273 50.9236 24.2317 50.1212 23.4096 49.9051C22.4102 49.6423 21.8387 50.4399 20.8822 51.9807C19.8884 53.5978 18.7944 55.1369 16.6667 54.5776C14.5874 54.0309 13.8641 51.9969 14.3641 50.0948C14.8514 48.2411 16.1949 47.1295 17.8804 46.8144L18.372 48.6152C17.3634 48.7809 16.5 49.3121 16.1695 50.5694C15.8855 51.6494 16.2514 52.4866 17.1057 52.7112C17.9761 52.94 18.5121 52.4088 19.4601 50.9003C20.5481 49.1873 21.6242 47.4539 23.8647 48.0429C25.9279 48.5853 26.753 50.56 26.1343 52.9133Z" fill="white"/>
<path d="M24.5756 35.5376C25.6148 33.987 27.4093 33.5845 29.2092 34.7907L33.4597 37.6391L32.4576 39.1344L28.3594 36.388C27.3072 35.6829 26.3451 35.9209 25.7142 36.8624C25.0554 37.8454 25.1174 39.0105 26.5296 39.9568L30.2401 42.4434L29.238 43.9387L19.5464 37.4439L20.5484 35.9486L24.2036 38.3981C23.7898 37.4587 23.9447 36.4791 24.5756 35.5376Z" fill="white"/>
<path d="M40.7833 31.0731C38.8418 32.5401 36.1172 32.1964 34.6302 30.2284C33.1332 28.247 33.5569 25.5455 35.4983 24.0786C37.4531 22.6016 40.1543 22.942 41.6514 24.9233C43.1384 26.8914 42.738 29.5962 40.7833 31.0731ZM39.7283 29.6769C40.8985 28.7927 41.1296 27.2186 40.2152 26.0085C39.3009 24.7984 37.7235 24.5907 36.5533 25.4748C35.3831 26.359 35.1521 27.9332 36.0664 29.1432C36.9807 30.3533 38.5581 30.5611 39.7283 29.6769Z" fill="white"/>
<path d="M55.6774 15.1189L57.5062 14.6038L57.2465 23.3345L55.546 23.8134L52.355 18.8769L52.1931 24.7576L50.4926 25.2365L45.7149 17.9245L47.5438 17.4095L50.6586 22.5059L50.7844 16.4968L52.4368 16.0315L55.6639 21.0963L55.6774 15.1189Z" fill="white"/>
<path d="M84.5224 18.0932C86.2896 18.7442 87.0288 20.4019 86.3087 22.3568L84.5228 27.205L82.8338 26.5828L84.5793 21.8441C84.9826 20.7494 84.613 19.9205 83.6903 19.5806C82.6894 19.2119 81.7494 19.5939 81.2251 21.0171L79.6121 25.3961L77.923 24.7739L79.6686 20.0352C80.0719 18.9404 79.7492 18.1288 78.8264 17.7889C77.8724 17.4375 76.8543 17.7907 76.33 19.2139L74.7169 23.5929L73.0279 22.9707L75.9084 15.151L77.5974 15.7732L77.2518 16.7116C78.0345 16.1296 78.9391 16.0365 79.9088 16.3937C80.9253 16.7682 81.5089 17.4983 81.6744 18.4473C82.4901 17.8242 83.4745 17.7072 84.5224 18.0932Z" fill="white"/>
<path d="M92.3823 33.5832C90.5938 31.9333 90.4478 29.191 92.1203 27.3779C93.8041 25.5526 96.538 25.4896 98.3265 27.1395C100.127 28.8007 100.272 31.5194 98.5885 33.3447C96.916 35.1578 94.1831 35.2444 92.3823 33.5832ZM93.5689 32.2969C94.6469 33.2914 96.2371 33.239 97.2655 32.1243C98.2939 31.0095 98.218 29.4202 97.1399 28.4258C96.0619 27.4313 94.4717 27.4836 93.4434 28.5984C92.415 29.7132 92.4909 31.3024 93.5689 32.2969Z" fill="white"/>
<path d="M105.697 38.7031C106.926 38.5475 107.807 39.2041 108.348 40.104L106.677 41.1088C106.139 40.0518 104.954 39.1497 103.355 40.1116L99.7553 42.276L98.8278 40.7334L105.969 36.439L106.897 37.9816L105.697 38.7031Z" fill="white"/>
<path d="M106.894 49.5921C105.709 50.1966 105.331 51.3816 105.67 52.6711C105.924 53.6383 106.55 54.2492 107.216 54.4878L106.755 56.1427C105.464 55.6894 104.485 54.6542 104.07 53.0745C103.371 50.4149 104.739 48.2113 107.157 47.5757C109.542 46.9486 111.849 48.186 112.515 50.7167C113.146 53.1184 111.644 55.271 109.323 55.8812C109.081 55.9448 108.815 55.9803 108.581 56.0074L106.894 49.5921ZM108.308 49.2031L109.554 53.942C110.877 53.3358 111.206 52.1635 110.931 51.1158C110.588 49.8102 109.581 49.127 108.308 49.2031Z" fill="white"/>
<path d="M26.1342 76.2688C25.5495 74.0444 24.0508 72.8012 22.2176 72.6455L21.7023 74.4871C22.9526 74.5892 23.9391 75.2604 24.3416 76.7918C24.7272 78.2586 24.2316 79.061 23.4095 79.2771C22.4102 79.5398 21.8386 78.7422 20.8821 77.2015C19.8883 75.5843 18.7944 74.0452 16.6667 74.6046C14.5873 75.1512 13.864 77.1853 14.3641 79.0873C14.8514 80.941 16.1948 82.0526 17.8803 82.3678L18.3719 80.5669C17.3633 80.4012 16.4999 79.87 16.1694 78.6127C15.8855 77.5327 16.2513 76.6955 17.1056 76.471C17.976 76.2421 18.512 76.7733 19.4601 78.2818C20.548 79.9949 21.6241 81.7282 23.8646 81.1392C25.9278 80.5968 26.7529 78.6222 26.1342 76.2688Z" fill="white"/>
<path d="M24.5755 93.6445C25.6147 95.1952 27.4092 95.5976 29.2091 94.3914L33.4596 91.543L32.4575 90.0477L28.3593 92.7941C27.3071 93.4992 26.345 93.2612 25.7141 92.3197C25.0554 91.3367 25.1173 90.1717 26.5295 89.2253L30.24 86.7387L29.238 85.2434L19.5463 91.7382L20.5483 93.2335L24.2035 90.784C23.7897 91.7234 23.9446 92.703 24.5755 93.6445Z" fill="white"/>
<path d="M40.7832 98.109C38.8417 96.6421 36.1172 96.9857 34.6301 98.9538C33.1331 100.935 33.5568 103.637 35.4983 105.104C37.453 106.581 40.1543 106.24 41.6513 104.259C43.1383 102.291 42.7379 99.586 40.7832 98.109ZM39.7282 99.5052C40.8984 100.389 41.1295 101.964 40.2152 103.174C39.3009 104.384 37.7234 104.591 36.5532 103.707C35.383 102.823 35.152 101.249 36.0663 100.039C36.9806 98.8288 38.558 98.6211 39.7282 99.5052Z" fill="white"/>
<path d="M55.6773 114.063L57.5062 114.578L57.2464 105.848L55.5459 105.369L52.3549 110.305L52.193 104.425L50.4925 103.946L45.7148 111.258L47.5437 111.773L50.6585 106.676L50.7843 112.685L52.4367 113.151L55.6638 108.086L55.6773 114.063Z" fill="white"/>
<path d="M84.5223 111.089C86.2895 110.438 87.0288 108.78 86.3086 106.825L84.5227 101.977L82.8337 102.599L84.5793 107.338C84.9825 108.433 84.6129 109.262 83.6902 109.602C82.6893 109.97 81.7493 109.588 81.2251 108.165L79.612 103.786L77.9229 104.408L79.6685 109.147C80.0718 110.242 79.7491 111.053 78.8264 111.393C77.8724 111.745 76.8542 111.391 76.3299 109.968L74.7169 105.589L73.0278 106.211L75.9083 114.031L77.5974 113.409L77.2517 112.471C78.0344 113.053 78.939 113.146 79.9087 112.788C80.9252 112.414 81.5088 111.684 81.6743 110.735C82.49 111.358 83.4744 111.475 84.5223 111.089Z" fill="white"/>
<path d="M92.3823 95.5989C90.5937 97.2489 90.4477 99.9911 92.1203 101.804C93.8041 103.629 96.5379 103.693 98.3264 102.043C100.127 100.381 100.272 97.6627 98.5884 95.8374C96.9159 94.0243 94.1831 93.9377 92.3823 95.5989ZM93.5688 96.8852C94.6469 95.8908 96.237 95.9431 97.2654 97.0579C98.2938 98.1727 98.2179 99.7619 97.1399 100.756C96.0618 101.751 94.4717 101.698 93.4433 100.584C92.4149 99.4689 92.4908 97.8797 93.5688 96.8852Z" fill="white"/>
<path d="M105.697 90.479C106.926 90.6346 107.807 89.978 108.348 89.0782L106.677 88.0733C106.139 89.1304 104.954 90.0324 103.355 89.0705L99.7553 86.9061L98.8277 88.4487L105.969 92.7431L106.897 91.2005L105.697 90.479Z" fill="white"/>
<path d="M106.894 79.5901C105.709 78.9855 105.331 77.8005 105.67 76.511C105.924 75.5439 106.55 74.9329 107.216 74.6944L106.755 73.0394C105.464 73.4928 104.485 74.5279 104.07 76.1076C103.371 78.7672 104.739 80.9708 107.157 81.6064C109.542 82.2336 111.849 80.9962 112.515 78.4655C113.146 76.0637 111.644 73.9111 109.323 73.3009C109.081 73.2373 108.815 73.2018 108.581 73.1747L106.894 79.5901ZM108.308 79.9791L109.554 75.2401C110.877 75.8463 111.206 77.0186 110.931 78.0663C110.587 79.372 109.581 80.0551 108.308 79.9791Z" fill="white"/>
</svg>
