<svg width="25" height="17" viewBox="0 0 25 17" fill="none" xmlns="http://www.w3.org/2000/svg">
<path fill-rule="evenodd" clip-rule="evenodd" d="M24.875 1.06607C24.875 1.65484 24.3977 2.13214 23.8089 2.13214H1.06607C0.477302 2.13214 0 1.65484 0 1.06607C0 0.477302 0.477302 0 1.06607 0H23.8089C24.3977 0 24.875 0.477302 24.875 1.06607Z" fill="#1C274C"/>
<path fill-rule="evenodd" clip-rule="evenodd" d="M24.875 8.17325C24.875 8.762 24.3977 9.23932 23.8089 9.23932H1.06607C0.477302 9.23932 0 8.762 0 8.17325C0 7.58449 0.477302 7.10718 1.06607 7.10718H23.8089C24.3977 7.10718 24.875 7.58449 24.875 8.17325Z" fill="#1C274C"/>
<path fill-rule="evenodd" clip-rule="evenodd" d="M24.875 15.2804C24.875 15.8692 24.3977 16.3465 23.8089 16.3465H1.06607C0.477302 16.3465 0 15.8692 0 15.2804C0 14.6917 0.477302 14.2144 1.06607 14.2144H23.8089C24.3977 14.2144 24.875 14.6917 24.875 15.2804Z" fill="#1C274C"/>
</svg>
