<svg width="39" height="37" viewBox="0 0 39 37" fill="none" xmlns="http://www.w3.org/2000/svg">
<g id="Shop">
<path id="Vector" d="M21.4499 21.275V26.825C21.4499 27.0703 21.5526 27.3056 21.7355 27.479C21.9183 27.6525 22.1663 27.75 22.4249 27.75H28.2749C28.5335 27.75 28.7815 27.6525 28.9643 27.479C29.1472 27.3056 29.2499 27.0703 29.2499 26.825V21.275C29.2499 21.0296 29.1472 20.7943 28.9643 20.6209C28.7815 20.4474 28.5335 20.35 28.2749 20.35H22.4249C22.1663 20.35 21.9183 20.4474 21.7355 20.6209C21.5526 20.7943 21.4499 21.0296 21.4499 21.275ZM23.3999 25.9V22.2H27.2999V25.9H23.3999ZM9.7499 3.69995C9.60699 3.7 9.46584 3.72986 9.33644 3.7874C9.20705 3.84495 9.09256 3.92877 9.0011 4.03295L4.1261 9.58295C3.98005 9.74911 3.9 9.95859 3.8999 10.175V12.95C3.8999 14.5928 4.6526 16.0709 5.8499 17.0866V32.375C5.8499 32.6203 5.95263 32.8556 6.13547 33.029C6.31832 33.2025 6.56632 33.3 6.8249 33.3H32.1749C32.4335 33.3 32.6815 33.2025 32.8643 33.029C33.0472 32.8556 33.1499 32.6203 33.1499 32.375V17.0866C34.3472 16.0691 35.0999 14.5928 35.0999 12.95V10.1417C35.0999 9.97515 35.0999 9.84195 34.8737 9.58295L29.9987 4.03295C29.9072 3.92877 29.7928 3.84495 29.6634 3.7874C29.534 3.72986 29.3928 3.7 29.2499 3.69995H9.7499ZM9.7499 16.65C8.71556 16.65 7.72358 16.2601 6.99219 15.5662C6.26079 14.8724 5.8499 13.9313 5.8499 12.95V11.1H13.6499V12.95C13.6499 13.9313 13.239 14.8724 12.5076 15.5662C11.7762 16.2601 10.7842 16.65 9.7499 16.65ZM19.4999 16.65C18.4656 16.65 17.4736 16.2601 16.7422 15.5662C16.0108 14.8724 15.5999 13.9313 15.5999 12.95V11.1H23.3999V12.95C23.3999 13.9313 22.989 14.8724 22.2576 15.5662C21.5262 16.2601 20.5342 16.65 19.4999 16.65ZM29.2499 16.65C28.2156 16.65 27.2236 16.2601 26.4922 15.5662C25.7608 14.8724 25.3499 13.9313 25.3499 12.95V11.1H33.1499V12.95C33.1499 13.9313 32.739 14.8724 32.0076 15.5662C31.2762 16.2601 30.2842 16.65 29.2499 16.65ZM9.7499 31.45H7.7999V18.1855C9.02899 18.5988 10.3685 18.6102 11.6052 18.218C12.8419 17.8258 13.9049 17.0524 14.6249 16.021C15.1585 16.7839 15.883 17.4097 16.7337 17.8422C17.5844 18.2748 18.5347 18.5008 19.4999 18.5C20.4652 18.5006 21.4157 18.2743 22.2664 17.8414C23.1171 17.4085 23.8415 16.7824 24.3749 16.0191C25.0949 17.0506 26.1579 17.8239 27.3946 18.2162C28.6313 18.6084 29.9708 18.5969 31.1999 18.1836V31.45H19.4999V21.275C19.4999 21.0296 19.3972 20.7943 19.2143 20.6209C19.0315 20.4474 18.7835 20.35 18.5249 20.35H10.7249C10.4663 20.35 10.2183 20.4474 10.0355 20.6209C9.85263 20.7943 9.7499 21.0296 9.7499 21.275V31.45ZM13.9229 9.24995H6.9575L10.2062 5.54995H15.2216L13.9229 9.24995ZM23.0216 9.24995H15.9782L17.2769 5.54995H21.7229L23.0216 9.24995ZM25.0769 9.24995L23.7782 5.54995H28.7936L32.0443 9.24995H25.0769ZM11.6999 31.45V22.2H17.5499V31.45H11.6999Z" fill="black"/>
</g>
</svg>
